<svg width="64" height="64" viewBox="0 0 64 64" fill="none" xmlns="http://www.w3.org/2000/svg">
<g clip-path="url(#clip0_2638_122584)">
<circle cx="32" cy="32" r="31.5" fill="white" stroke="#EEEEEE"/>
<path d="M38.8188 16L31.9954 19.3679L25.1797 16L31.9954 28.7471L38.8188 16Z" fill="#FBB900"/>
<path d="M41.2054 25.8501L41.0991 25.7604L45.962 23.7517V17.0234L37.505 20.563C37.505 20.563 32.9308 29.091 32.8168 29.2851C36.4033 29.7033 39.1007 32.6679 39.1007 36.2225C39.1007 40.0757 35.9094 43.2195 31.9886 43.2195C28.0678 43.2195 24.8765 40.0832 24.8765 36.2225C24.8765 32.6604 27.5663 29.7033 31.1528 29.2851C31.0464 29.091 26.4798 20.563 26.4798 20.563L18.038 17.0234V23.7517L22.9009 25.7604L22.7946 25.8501C19.7476 28.4712 18 32.2572 18 36.2299C18 43.8169 24.2763 50.0001 31.9962 50.0001C39.7161 50.0001 46 43.8244 46 36.2299C46 32.2572 44.2524 28.4786 41.2054 25.8501Z" fill="#FBB900"/>
</g>
<defs>
<clipPath id="clip0_2638_122584">
<rect width="64" height="64" rx="32" fill="white"/>
</clipPath>
</defs>
</svg>
