<svg width="20" height="20" viewBox="0 0 20 20" fill="none" xmlns="http://www.w3.org/2000/svg">
<path d="M12.3486 5.1128C12.3484 3.78597 11.2965 2.71041 9.99969 2.71041C8.70303 2.71058 7.65191 3.78607 7.65174 5.1128C7.65174 6.43968 8.70292 7.51598 9.99969 7.51615C11.2966 7.51615 12.3486 6.43979 12.3486 5.1128ZM14.0202 5.1128C14.0202 7.38442 12.2198 9.22656 9.99969 9.22656C7.7797 9.22639 5.9801 7.38431 5.9801 5.1128C5.98027 2.84144 7.77981 1.00017 9.99969 1C12.2197 1 14.02 2.84134 14.0202 5.1128Z" fill="white"/>
<path d="M16.3284 18.1448C16.3284 14.5687 13.495 11.6697 10 11.6697C6.50499 11.6697 3.67164 14.5687 3.67164 18.1448C3.67164 18.6171 3.29743 19 2.83582 19C2.37421 19 2 18.6171 2 18.1448C2 13.6241 5.58177 9.95928 10 9.95928C14.4182 9.95928 18 13.6241 18 18.1448C18 18.6171 17.6258 19 17.1642 19C16.7026 19 16.3284 18.6171 16.3284 18.1448Z" fill="white"/>
<path d="M10 9.95928C10.3666 9.95942 10.6908 10.204 10.7988 10.5625L12.3912 15.8569C12.4725 16.1274 12.4174 16.4215 12.2447 16.6425L10.6524 18.6793C10.4938 18.8819 10.254 18.9999 10.0003 19C9.74647 19 9.50594 18.8821 9.34733 18.6793L7.75498 16.6425C7.5824 16.4215 7.52815 16.1273 7.60945 15.8569L9.20087 10.5625L9.25124 10.4336C9.39061 10.1465 9.67902 9.95928 10 9.95928ZM9.33613 15.9266L9.99938 16.7751L10.6626 15.9276L9.99938 13.7218L9.33613 15.9266Z" fill="white"/>
</svg>
