<svg width="20" height="20" viewBox="0 0 20 20" fill="none" xmlns="http://www.w3.org/2000/svg">
<path d="M10.3333 6.33333V3H2V18H18.6667V6.33333H10.3333ZM5.33333 16.3333H3.66667V14.6667H5.33333V16.3333ZM5.33333 13H3.66667V11.3333H5.33333V13ZM5.33333 9.66667H3.66667V8H5.33333V9.66667ZM5.33333 6.33333H3.66667V4.66667H5.33333V6.33333ZM8.66667 16.3333H7V14.6667H8.66667V16.3333ZM8.66667 13H7V11.3333H8.66667V13ZM8.66667 9.66667H7V8H8.66667V9.66667ZM8.66667 6.33333H7V4.66667H8.66667V6.33333ZM17 16.3333H10.3333V14.6667H12V13H10.3333V11.3333H12V9.66667H10.3333V8H17V16.3333ZM15.3333 9.66667H13.6667V11.3333H15.3333V9.66667ZM15.3333 13H13.6667V14.6667H15.3333V13Z" fill="white"/>
</svg>
