<svg width="20" height="20" viewBox="0 0 20 20" fill="none" xmlns="http://www.w3.org/2000/svg">
<path d="M7.16757 7.66731C7.1762 7.00695 7.44237 6.37607 7.90935 5.90909C8.37633 5.44211 9.00721 5.17594 9.66757 5.16731C10.3279 5.17594 10.9588 5.44211 11.4258 5.90909C11.8928 6.37607 12.1589 7.00695 12.1676 7.66731C12.1589 8.32767 11.8928 8.95855 11.4258 9.42553C10.9588 9.89251 10.3279 10.1587 9.66757 10.1673C9.00721 10.1587 8.37633 9.89251 7.90935 9.42553C7.44237 8.95855 7.1762 8.32767 7.16757 7.66731ZM9.66757 15.1673L13.0009 16.0006V13.434C11.9956 14.0394 10.8409 14.3511 9.66757 14.334C8.49422 14.3511 7.33951 14.0394 6.33424 13.434V16.0006M9.66757 2.66731C9.01088 2.65533 8.35867 2.77778 7.75104 3.02713C7.14342 3.27649 6.59321 3.64748 6.13424 4.11731C5.65933 4.57678 5.28405 5.12906 5.03173 5.73979C4.77941 6.35051 4.65545 7.00662 4.66757 7.66731C4.65889 8.32381 4.78451 8.97515 5.03673 9.58133C5.28894 10.1875 5.66243 10.7357 6.13424 11.1923C6.59107 11.6667 7.14032 12.0423 7.74804 12.296C8.35577 12.5497 9.00907 12.6761 9.66757 12.6673C10.3261 12.6761 10.9794 12.5497 11.5871 12.296C12.1948 12.0423 12.7441 11.6667 13.2009 11.1923C13.6727 10.7357 14.0462 10.1875 14.2984 9.58133C14.5506 8.97515 14.6763 8.32381 14.6676 7.66731C14.6797 7.00662 14.5557 6.35051 14.3034 5.73979C14.0511 5.12906 13.6758 4.57678 13.2009 4.11731C12.7419 3.64748 12.1917 3.27649 11.5841 3.02713C10.9765 2.77778 10.3243 2.65533 9.66757 2.66731ZM16.3342 7.66731C16.3172 8.46729 16.1563 9.25767 15.8592 10.0006C15.5929 10.7572 15.1889 11.4578 14.6676 12.0673V18.5006L9.66757 16.834L4.66757 18.5006V12.0673C3.58898 10.856 2.99549 9.28921 3.0009 7.66731C2.98622 6.7928 3.15093 5.92455 3.48489 5.11618C3.81884 4.30781 4.31495 3.57647 4.94257 2.96731C5.55399 2.33406 6.28871 1.83283 7.10137 1.49458C7.91404 1.15633 8.78741 0.988224 9.66757 1.00064C10.5477 0.988224 11.4211 1.15633 12.2338 1.49458C13.0464 1.83283 13.7812 2.33406 14.3926 2.96731C15.0202 3.57647 15.5163 4.30781 15.8503 5.11618C16.1842 5.92455 16.3489 6.7928 16.3342 7.66731Z" fill="white"/>
</svg>
