<svg width="20" height="20" viewBox="0 0 20 20" fill="none" xmlns="http://www.w3.org/2000/svg">
<path d="M9.5 2C11.4283 2 13.2133 2.34 14.5483 2.92417C15.2142 3.21583 15.8058 3.58417 16.2417 4.03583C16.6458 4.4525 16.9458 4.97583 16.9933 5.5825L17 5.75V14.0833C17 14.7617 16.6825 15.3417 16.2417 15.7975C15.8058 16.2492 15.2142 16.6175 14.5483 16.9092C13.2133 17.4925 11.4283 17.8333 9.5 17.8333C7.57167 17.8333 5.78667 17.4933 4.45167 16.9092C3.78583 16.6175 3.19417 16.2492 2.75833 15.7975C2.35417 15.3808 2.05417 14.8575 2.00667 14.2508L2 14.0833V5.75C2 5.07167 2.3175 4.49167 2.75833 4.03583C3.19417 3.58417 3.78583 3.21583 4.45167 2.92417C5.78667 2.34083 7.57167 2 9.5 2ZM15.3333 12.3392C15.0809 12.4908 14.8186 12.6255 14.5483 12.7425C13.2133 13.3258 11.4283 13.6667 9.5 13.6667C7.57167 13.6667 5.78667 13.3267 4.45167 12.7425C4.18138 12.6255 3.91914 12.4908 3.66667 12.3392V14.0833C3.66667 14.21 3.72167 14.3967 3.95667 14.6392C4.195 14.8858 4.58 15.1458 5.12 15.3825C6.19833 15.8542 7.74583 16.1667 9.5 16.1667C11.2542 16.1667 12.8017 15.8542 13.88 15.3825C14.42 15.1458 14.805 14.8858 15.0433 14.6392C15.2783 14.3975 15.3333 14.21 15.3333 14.0833V12.3392ZM15.3333 8.1725C15.0809 8.32414 14.8186 8.45888 14.5483 8.57583C13.2133 9.15917 11.4283 9.5 9.5 9.5C7.57167 9.5 5.78667 9.16 4.45167 8.57583C4.18138 8.45888 3.91914 8.32414 3.66667 8.1725V9.91667C3.66667 10.0433 3.72167 10.23 3.95667 10.4725C4.195 10.7192 4.58 10.9792 5.12 11.2158C6.19833 11.6875 7.74583 12 9.5 12C11.2542 12 12.8017 11.6875 13.88 11.2158C14.42 10.9792 14.805 10.7192 15.0433 10.4725C15.2783 10.2308 15.3333 10.0433 15.3333 9.91667V8.1725ZM9.5 3.66667C7.74583 3.66667 6.19833 3.97917 5.12 4.45083C4.58 4.6875 4.195 4.9475 3.95667 5.19417C3.72167 5.43583 3.66667 5.62333 3.66667 5.75C3.66667 5.87667 3.72167 6.06333 3.95667 6.30583C4.195 6.5525 4.58 6.8125 5.12 7.04917C6.19833 7.52083 7.74583 7.83333 9.5 7.83333C11.2542 7.83333 12.8017 7.52083 13.88 7.04917C14.42 6.8125 14.805 6.5525 15.0433 6.30583C15.2783 6.06417 15.3333 5.87667 15.3333 5.75C15.3333 5.62333 15.2783 5.43667 15.0433 5.19417C14.805 4.9475 14.42 4.6875 13.88 4.45083C12.8017 3.97917 11.2542 3.66667 9.5 3.66667Z" fill="white"/>
</svg>
