<svg width="80" height="80" viewBox="0 0 80 80" fill="none" xmlns="http://www.w3.org/2000/svg">
<path fill-rule="evenodd" clip-rule="evenodd" d="M68.0014 15.0035L69.5014 8L62.5014 8.50379L64.1923 10.5021L44.1287 26.0059L36.062 17.9392L35.1176 16.9948L34.0703 17.8238L10.0703 36.8238L11.9324 39.176L34.8852 21.005L42.9407 29.0605L43.8741 29.9939L44.9185 29.1868L66.1321 12.7945L68.0014 15.0035Z" fill="white"/>
<path d="M66.511 56.7315C66.511 57.8669 65.5545 59.2965 63.0903 60.5316C60.7148 61.7223 57.3282 62.5021 53.5055 62.5021C49.6828 62.5021 46.2962 61.7223 43.9207 60.5316C41.4565 59.2965 40.5 57.8669 40.5 56.7315C40.5 55.5961 41.4565 54.1665 43.9207 52.9314C46.2962 51.7408 49.6828 50.9609 53.5055 50.9609C57.3282 50.9609 60.7148 51.7408 63.0903 52.9314C65.5545 54.1665 66.511 55.5961 66.511 56.7315Z" fill="white" stroke="#EEEEEE" stroke-width="3"/>
<path d="M66.511 50.7315C66.511 51.8669 65.5545 53.2965 63.0903 54.5316C60.7148 55.7223 57.3282 56.5021 53.5055 56.5021C49.6828 56.5021 46.2962 55.7223 43.9207 54.5316C41.4565 53.2965 40.5 51.8669 40.5 50.7315C40.5 49.5961 41.4565 48.1665 43.9207 46.9314C46.2962 45.7408 49.6828 44.9609 53.5055 44.9609C57.3282 44.9609 60.7148 45.7408 63.0903 46.9314C65.5545 48.1665 66.511 49.5961 66.511 50.7315Z" fill="white" stroke="#EEEEEE" stroke-width="3"/>
<path d="M66.511 44.4971C66.511 45.6325 65.5545 47.0621 63.0903 48.2972C60.7148 49.4879 57.3282 50.2677 53.5055 50.2677C49.6828 50.2677 46.2962 49.4879 43.9207 48.2972C41.4565 47.0621 40.5 45.6325 40.5 44.4971C40.5 43.3617 41.4565 41.9321 43.9207 40.697C46.2962 39.5064 49.6828 38.7266 53.5055 38.7266C57.3282 38.7266 60.7148 39.5064 63.0903 40.697C65.5545 41.9321 66.511 43.3617 66.511 44.4971Z" fill="white" stroke="#EEEEEE" stroke-width="3"/>
<path d="M66.511 38.2706C66.511 39.406 65.5545 40.8356 63.0903 42.0707C60.7148 43.2613 57.3282 44.0411 53.5055 44.0411C49.6828 44.0411 46.2962 43.2613 43.9207 42.0707C41.4565 40.8356 40.5 39.406 40.5 38.2706C40.5 37.1352 41.4565 35.7056 43.9207 34.4705C46.2962 33.2798 49.6828 32.5 53.5055 32.5C57.3282 32.5 60.7148 33.2798 63.0903 34.4705C65.5545 35.7056 66.511 37.1352 66.511 38.2706Z" fill="white" stroke="#EEEEEE" stroke-width="3"/>
<circle cx="33" cy="58" r="13.5" fill="#FFC224" stroke="#EEEEEE" stroke-width="3"/>
<path d="M35.5064 55.322H37.0742C37.0229 53.502 35.521 52.1953 33.3672 52.1953C31.2207 52.1953 29.5943 53.4864 29.587 55.4309C29.5943 57.002 30.6493 57.9197 32.3562 58.4175L33.6163 58.7753C34.7372 59.0942 35.6163 59.4908 35.6236 60.4708C35.6163 61.5753 34.6346 62.2986 33.2793 62.3064C32.0412 62.2986 31.0156 61.7153 30.9203 60.4864H29.3086C29.4112 62.5397 30.9057 63.7997 33.2793 63.7997C35.7848 63.7997 37.2134 62.4075 37.2207 60.5019C37.2134 58.4642 35.5137 57.6786 34.1584 57.3286L33.1328 57.0331C32.2903 56.8231 31.1987 56.4031 31.1987 55.3375C31.206 54.3809 32.0265 53.6731 33.3232 53.6731C34.5394 53.6731 35.4038 54.272 35.5064 55.322Z" fill="white"/>
<rect x="32.4727" y="51.1387" width="1.58242" height="13.7143" fill="white"/>
</svg>
