<svg width="80" height="80" viewBox="0 0 80 80" fill="none" xmlns="http://www.w3.org/2000/svg">
<rect x="57" y="21" width="28" height="44" rx="2" transform="rotate(90 57 21)" fill="white"/>
<rect x="57" y="26" width="4" height="44" transform="rotate(90 57 26)" fill="#FFC224"/>
<rect x="70.5" y="31.5" width="31" height="47" rx="3.5" transform="rotate(90 70.5 31.5)" fill="white" stroke="#EEEEEE" stroke-width="3"/>
<path d="M49.9344 38.375L46.4496 40.0818L42.9688 38.375L46.4496 44.8349L49.9344 38.375Z" fill="#FFC224"/>
<path d="M51.1521 43.3657L51.0978 43.3203L53.5814 42.3023V38.8926L49.2623 40.6864C49.2623 40.6864 46.9262 45.0081 46.8679 45.1065C48.6996 45.3185 50.0772 46.8209 50.0772 48.6222C50.0772 50.575 48.4473 52.1682 46.445 52.1682C44.4426 52.1682 42.8127 50.5788 42.8127 48.6222C42.8127 46.8171 44.1865 45.3185 46.0181 45.1065C45.9638 45.0081 43.6315 40.6864 43.6315 40.6864L39.3202 38.8926V42.3023L41.8038 43.3203L41.7494 43.3657C40.1933 44.694 39.3008 46.6127 39.3008 48.626C39.3008 52.471 42.5062 55.6044 46.4488 55.6044C50.3915 55.6044 53.6008 52.4747 53.6008 48.626C53.6008 46.6127 52.7082 44.6978 51.1521 43.3657Z" fill="#FFC224"/>
</svg>
