<svg width="80" height="80" viewBox="0 0 80 80" fill="none" xmlns="http://www.w3.org/2000/svg">
<circle cx="40" cy="44" r="23" fill="white"/>
<circle cx="40" cy="44" r="12" fill="#FFC224"/>
<path d="M42.5064 41.322H44.0742C44.0229 39.502 42.521 38.1953 40.3672 38.1953C38.2207 38.1953 36.5943 39.4864 36.587 41.4309C36.5943 43.002 37.6493 43.9197 39.3562 44.4175L40.6163 44.7753C41.7372 45.0942 42.6163 45.4908 42.6236 46.4708C42.6163 47.5753 41.6346 48.2986 40.2793 48.3064C39.0412 48.2986 38.0156 47.7153 37.9203 46.4864H36.3086C36.4112 48.5397 37.9057 49.7997 40.2793 49.7997C42.7848 49.7997 44.2134 48.4075 44.2207 46.5019C44.2134 44.4642 42.5137 43.6786 41.1584 43.3286L40.1328 43.0331C39.2903 42.8231 38.1987 42.4031 38.1987 41.3375C38.206 40.3809 39.0265 39.6731 40.3232 39.6731C41.5394 39.6731 42.4038 40.272 42.5064 41.322Z" fill="white"/>
<rect x="39.4727" y="37.1406" width="1.58242" height="13.7143" fill="white"/>
<rect x="32" y="19" width="16" height="3" rx="1.5" fill="#D9D9D9"/>
<path d="M32 13H48L46 19H34L32 13Z" fill="white"/>
</svg>
