<svg width="80" height="80" viewBox="0 0 80 80" fill="none" xmlns="http://www.w3.org/2000/svg">
<rect x="19" y="12" width="42" height="56" fill="white"/>
<path d="M41.0507 24.9706C40.4882 24.5602 39.5097 24.5578 38.9434 24.9629C36.5317 26.6885 31.1091 29.0112 27.9939 29.4805C27.4477 29.5628 27 30.0129 27 30.5652V42.7826C27 48.6134 37.8137 54.9589 39.7413 55.8887C39.9079 55.9691 40.0918 55.9691 40.2571 55.8859C42.1802 54.9177 53 48.2199 53 43.4783V30.5652C53 30.0129 52.5532 29.5649 52.0061 29.49C48.7463 29.0442 43.431 26.7074 41.0507 24.9706Z" fill="#FFC224"/>
<path fill-rule="evenodd" clip-rule="evenodd" d="M41.5002 38.5V34H38.5002V38.5L34 38.5V41.5L38.5002 41.5V46H41.5002V41.5L46 41.5V38.5L41.5002 38.5Z" fill="white"/>
</svg>
