<svg width="250" height="48" viewBox="0 0 250 48" fill="none" xmlns="http://www.w3.org/2000/svg">
<g clip-path="url(#clip0_2744_31803)">
<path d="M28.3345 0L19.0488 4.75571L9.77344 0L19.0488 18L28.3345 0Z" fill="#B5B5B5"/>
<path d="M31.5796 13.9093L31.4348 13.7827L38.0527 10.9462V1.44531L26.5438 6.44355C26.5438 6.44355 20.3189 18.4857 20.1638 18.7599C25.0445 19.3504 28.7153 23.5367 28.7153 28.556C28.7153 33.9972 24.3723 38.4365 19.0367 38.4365C13.701 38.4365 9.35807 34.0077 9.35807 28.556C9.35807 23.5262 13.0186 19.3504 17.8992 18.7599C17.7545 18.4857 11.5399 6.44355 11.5399 6.44355L0.051702 1.44531V10.9462L6.66956 13.7827L6.5248 13.9093C2.37829 17.6105 0 22.9567 0 28.5666C0 39.2801 8.54118 48.0112 19.047 48.0112C29.5529 48.0112 38.1044 39.2907 38.1044 28.5666C38.1044 22.9567 35.7261 17.6211 31.5796 13.9093Z" fill="#B5B5B5"/>
<path d="M73.7065 4.25H70.6458V19.6982L61.4635 7.36072C59.9331 5.55756 58.8887 4.25 56.4484 4.25H53.3359V22.83C53.3359 23.7052 53.915 24.4222 54.6492 24.4222H57.6996V8.90026L66.9439 21.1533C68.5053 22.9987 69.8909 24.4117 72.1555 24.4117H75.0094V5.83172C75.0094 4.9565 74.42 4.25 73.6962 4.25H73.7065Z" fill="#B5B5B5"/>
<path d="M98.6762 4.25H95.6258V12.2851H83.1449V4.25H80.0945C79.3706 4.25 78.7812 4.9565 78.7812 5.83172V22.83C78.7812 23.7052 79.3706 24.4222 80.0945 24.4222H83.1449V15.7755H95.6258V24.4117H98.6762C99.4 24.4117 99.9894 23.6946 99.9894 22.8194V5.83172C99.9894 4.9565 99.4104 4.25 98.6762 4.25Z" fill="#B5B5B5"/>
<path d="M120.052 16.7948C121.045 17.438 121.644 18.3871 121.644 19.6419C121.644 22.3835 118.749 23.6384 115.161 23.6384C111.573 23.6384 108.688 22.3835 108.688 19.6419C108.688 16.9002 111.542 15.6454 115.161 15.6454H115.12H125.894C126.039 15.6454 126.153 15.5294 126.174 15.3396C126.174 15.2552 126.246 14.7913 126.174 14.4117C126.142 14.2535 126.039 14.148 125.894 14.148H116.846V11.2904H125.46C125.605 11.2904 125.719 11.1744 125.739 10.9951C125.75 10.9108 125.812 10.4468 125.739 10.0567C125.708 9.89848 125.605 9.80358 125.45 9.80358H109.133C108.678 9.80358 108.295 9.43451 108.295 8.99162V4.93187C108.295 4.47844 107.923 4.10938 107.457 4.10938H104.893V9.75085C104.893 10.5944 105.596 11.2904 106.475 11.2904H113.434V14.148H103.445L104.407 15.6454H107.385C106.072 16.5523 105.296 17.8282 105.296 19.4732C105.296 23.3853 109.712 25.1674 115.151 25.1674C120.59 25.1674 125.015 23.3853 125.015 19.4732C125.015 18.4292 124.705 17.5435 124.147 16.8053H120.042L120.052 16.7948Z" fill="#B5B5B5"/>
<path d="M138.759 7.66478C138.935 7.86513 139.09 8.08657 139.224 8.33964C139.514 8.86689 139.689 9.48903 139.689 10.1428C139.689 12.1674 138.263 13.8019 136.153 13.8019C134.044 13.8019 132.617 12.1674 132.617 10.1428C132.617 8.1182 134.126 6.51539 136.101 6.4943H143.712C143.857 6.4943 143.97 6.36776 143.991 6.1885C144.001 6.10414 144.063 5.61908 143.991 5.22892C143.96 5.07075 143.857 4.9653 143.702 4.9653H137.89V4.15335C137.89 3.69993 137.508 3.32031 137.032 3.32031H134.395V4.9653H127.777C127.912 5.16566 128.729 6.43103 128.77 6.48376H131.262C129.98 7.4117 129.194 8.70871 129.194 10.1323C129.194 12.9688 131.986 15.2676 136.143 15.2676C138.935 15.2676 140.982 14.2342 142.171 12.6736H146.979V18.2412H134.199V16.6911C134.199 16.2166 133.816 15.8476 133.34 15.8476H130.714V22.7755C130.714 23.6402 131.448 24.3467 132.337 24.3467H150.485V4.5646C150.485 4.10063 150.092 3.73156 149.627 3.73156H146.979V7.66478H138.738H138.759ZM147 22.8388H134.685C134.426 22.8388 134.219 22.6384 134.219 22.3748V19.7702H147V22.8388ZM147 11.1551H142.957C143.05 10.8282 143.091 10.4802 143.091 10.1323C143.091 9.81592 143.05 9.49957 142.978 9.18323H147V11.1551Z" fill="#B5B5B5"/>
<path d="M190.937 7.17634H198.393C198.631 7.17634 198.682 6.88108 198.682 6.42766C198.682 5.97423 198.631 5.67897 198.393 5.67897H190.958V4.89866C190.948 4.65613 190.855 4.44523 190.699 4.27651C190.534 4.1078 190.337 4.02344 190.089 4.02344H186.729V5.67897H179.066L180.018 7.17634H186.873C186.894 7.49268 187.194 14.9795 177.836 16.5929L178.808 18.0586C178.808 18.0586 185.24 17.8477 188.911 12.7018C192.581 17.8371 199.013 18.0586 199.013 18.0586L199.985 16.5929C190.431 14.9479 190.948 7.17634 190.948 7.17634H190.937Z" fill="#B5B5B5"/>
<path d="M200.491 22.2422H177.008L177.98 23.7817H200.491C200.729 23.7817 200.791 23.4759 200.791 23.012C200.791 22.548 200.729 22.2422 200.491 22.2422Z" fill="#B5B5B5"/>
<path d="M224.915 16.4226H216.168V20.1555H212.766V16.4226H203.097L202.156 14.9252H224.915C225.153 14.9252 225.205 15.2205 225.205 15.6739C225.205 16.1273 225.153 16.4226 224.915 16.4226ZM213.944 13.217C208.288 13.217 203.997 11.7512 203.997 8.68271C203.997 5.61417 208.288 4.14844 213.944 4.14844C219.601 4.14844 223.892 5.61417 223.892 8.68271C223.892 11.7512 219.601 13.217 213.944 13.217ZM224.13 24.4367H205.558C204.69 24.4367 203.987 23.7196 203.987 22.8339V18.0254H206.603C207.016 18.0254 207.388 18.405 207.388 18.8268V22.1379C207.388 22.5702 207.75 22.9393 208.174 22.9393H224.119C224.357 22.9393 224.409 23.2346 224.409 23.688C224.409 24.1414 224.357 24.4367 224.119 24.4367H224.13ZM213.944 5.63526C210.222 5.63526 207.502 6.57375 207.502 8.68271C207.502 10.7917 210.222 11.7302 213.944 11.7302C217.667 11.7302 220.386 10.7917 220.386 8.68271C220.386 6.57375 217.667 5.63526 213.944 5.63526Z" fill="#B5B5B5"/>
<path d="M249.968 15.4357C249.948 15.3618 249.917 15.2986 249.865 15.2564C249.824 15.2142 249.772 15.1931 249.71 15.1931H245.15V12.23C247.321 11.4814 248.686 10.2582 248.686 8.5499C248.686 5.48135 244.395 4.01562 238.739 4.01562C233.082 4.01562 228.791 5.48135 228.791 8.5499C228.791 10.2582 230.156 11.4919 232.328 12.23V15.1931H226.961L227.902 16.6905H230.942C229.629 17.5446 228.833 18.6413 228.833 20.1703C228.833 23.8293 233.31 25.4954 238.821 25.4954C244.333 25.4954 248.81 23.8293 248.81 20.1703C248.81 19.2002 248.5 18.3671 247.921 17.6712H243.764C244.777 18.2722 245.388 19.158 245.388 20.339C245.388 22.9014 242.451 24.0719 238.821 24.0719C235.192 24.0719 232.255 22.9014 232.255 20.339C232.255 17.7766 235.151 16.6905 238.821 16.6905H249.71C249.803 16.6905 249.865 16.6378 249.917 16.5534C249.948 16.5112 249.968 16.4585 249.979 16.4058C249.989 16.3214 250.051 15.8047 249.979 15.4357H249.968ZM232.297 8.53935C232.297 6.43039 235.016 5.4919 238.739 5.4919C242.461 5.4919 245.181 6.43039 245.181 8.53935C245.181 10.6483 242.461 11.5868 238.739 11.5868C235.016 11.5868 232.297 10.6483 232.297 8.53935ZM235.73 12.9155C236.671 13.0209 237.694 13.0736 238.739 13.0736C239.783 13.0736 240.807 13.0209 241.748 12.9155V15.1826H235.73V12.9155Z" fill="#B5B5B5"/>
<path d="M174.134 3.61719H171.508V24.3061H174.982V4.47132C174.982 4.01789 174.589 3.61719 174.145 3.61719H174.134Z" fill="#B5B5B5"/>
<path d="M158.116 20.8343C157.682 20.8343 157.31 20.4653 157.31 20.0435V13.7799H167.309V5.47055C167.309 5.04876 166.926 4.67969 166.503 4.67969H153.246L154.187 6.15596H163.804V12.3141H153.804V20.7289C153.804 21.5936 154.539 22.3106 155.428 22.3106H168.591V20.8343H158.127H158.116Z" fill="#B5B5B5"/>
<path d="M60.7204 41.3612C60.3998 41.3612 60.1206 41.2979 59.8828 41.1714C59.645 41.0448 59.4485 40.8445 59.2934 40.5808L55.3951 33.0097V41.3717H54.1025C53.8957 41.3717 53.7199 41.2979 53.5751 41.1397C53.4304 40.9815 53.358 40.8023 53.3477 40.6019V30.5H55.0228C55.333 30.5 55.6019 30.5527 55.85 30.6793C56.0879 30.8058 56.2843 31.0167 56.4394 31.3014L60.3378 38.862V30.5H61.6303C61.8371 30.5 62.0129 30.5738 62.168 30.732C62.3128 30.8902 62.3852 31.0694 62.3852 31.2909V41.3822H60.7204V41.3612Z" fill="#B5B5B5"/>
<path d="M70.8952 39.6101C70.5437 40.2322 70.0473 40.7173 69.4372 41.0442C68.8168 41.371 68.124 41.5398 67.3381 41.5503C66.5419 41.5503 65.8388 41.371 65.2184 41.0442C64.6083 40.7173 64.1223 40.2322 63.7707 39.6101C63.4191 38.9879 63.233 38.2287 63.2227 37.3429C63.2227 36.4572 63.4191 35.6979 63.7707 35.0758C64.1223 34.4536 64.6083 33.9686 65.2287 33.6312C65.8491 33.2937 66.5523 33.125 67.3381 33.125C68.124 33.125 68.8168 33.2937 69.4269 33.6312C70.0473 33.958 70.5437 34.4431 70.8952 35.0652C71.2468 35.6874 71.4329 36.4466 71.4433 37.3324C71.4433 38.2181 71.2468 38.9774 70.8952 39.5995V39.6101ZM68.7238 35.4132C68.3618 34.9493 67.8965 34.7173 67.3381 34.7067C66.7694 34.7067 66.2938 34.9493 65.9318 35.4132C65.5699 35.8772 65.3838 36.5204 65.3735 37.3429C65.3735 38.176 65.5699 38.8192 65.9318 39.2832C66.2938 39.7366 66.7591 39.9791 67.3381 39.9897C67.8965 39.9897 68.3618 39.7471 68.7238 39.2832C69.0857 38.8297 69.2718 38.176 69.2925 37.3429C69.2718 36.5204 69.0857 35.8772 68.7238 35.4132Z" fill="#B5B5B5"/>
<path d="M79.3451 41.1313C79.2004 41.2895 79.0246 41.3633 78.8074 41.3633H77.5149V36.6392C77.5149 36.1752 77.4115 35.7745 77.1943 35.4371C76.9772 35.0997 76.6566 34.9204 76.2223 34.8993H74.1749V41.3633H72.8824C72.6756 41.3633 72.4998 41.2895 72.3447 41.1313C72.1999 40.9731 72.1172 40.7939 72.1172 40.5935V33.3281H76.8945C77.6803 33.3492 78.3111 33.6234 78.7971 34.1506C79.2831 34.6779 79.5313 35.3527 79.5416 36.1647V40.5935C79.5416 40.8044 79.4692 40.9837 79.3245 41.1313H79.3451Z" fill="#B5B5B5"/>
<path d="M87.6677 43.0371C87.3162 43.5855 86.8302 43.9967 86.2304 44.2709C85.6307 44.545 84.9482 44.6821 84.183 44.6821H82.0632C81.8564 44.6821 81.6806 44.6083 81.5255 44.4501C81.3808 44.292 81.2981 44.1127 81.2981 43.8913V43.1004H83.7281C84.4519 43.1004 85.0309 42.9211 85.4756 42.5521C85.9202 42.183 86.1374 41.6347 86.1477 40.8965V40.3377C85.8168 40.6751 85.4239 40.9282 84.9792 41.0969C84.5346 41.2656 84.0693 41.35 83.5626 41.35C82.5596 41.35 81.753 40.9809 81.1533 40.2638C80.5536 39.5468 80.2433 38.545 80.2227 37.248C80.2433 35.951 80.5536 34.9387 81.1533 34.2217C81.753 33.5046 82.5492 33.1355 83.5626 33.125C84.09 33.125 84.576 33.2304 85.0309 33.4308C85.4859 33.6417 85.8892 33.937 86.2304 34.3271V33.3359H87.4506C87.6574 33.3464 87.8332 33.4308 87.978 33.5784C88.1227 33.7261 88.1951 33.9053 88.2055 34.1268V41.0442C88.2055 41.8245 88.009 42.4888 87.6574 43.016L87.6677 43.0371ZM85.61 35.4132C85.2584 34.9598 84.8138 34.7278 84.2761 34.7173C83.7487 34.7173 83.3144 34.9282 82.9525 35.35C82.6009 35.7717 82.4148 36.4044 82.4045 37.2586C82.4045 38.1127 82.6009 38.7454 82.9525 39.1672C83.3041 39.589 83.7487 39.7999 84.2761 39.7999C84.8138 39.7999 85.2584 39.5573 85.61 39.1039C85.9616 38.6505 86.1477 38.0389 86.158 37.248C86.158 36.4677 85.9616 35.8456 85.61 35.3921V35.4132Z" fill="#B5B5B5"/>
<path d="M90.1806 41.3666C89.9738 41.3666 89.798 41.2928 89.6533 41.1346C89.5085 40.9765 89.4361 40.7972 89.4258 40.5969V31.2752C89.4258 31.0643 89.5085 30.8745 89.6533 30.7164C89.798 30.5582 89.9738 30.4844 90.1806 30.4844H91.5042V34.8183H96.1574V30.4844H97.4809C97.6878 30.4844 97.8635 30.5582 98.0083 30.7164C98.1531 30.8745 98.2255 31.0538 98.2358 31.2752V40.5969C98.2358 40.8077 98.1531 40.987 98.0083 41.1346C97.8635 41.2928 97.6878 41.3666 97.4809 41.3666H96.1574V36.4949H91.5042V41.3666H90.1806Z" fill="#B5B5B5"/>
<path d="M100.063 33.323C100.342 33.323 100.58 33.3969 100.787 33.5445C100.994 33.6921 101.149 33.903 101.262 34.1877L103.01 39.1438L104.789 34.1877C104.892 33.9136 105.037 33.6921 105.244 33.5445C105.45 33.3969 105.699 33.323 105.988 33.323H107.125L103.775 41.7589C103.393 42.7501 102.969 43.4777 102.503 43.9522C102.038 44.4267 101.449 44.6693 100.725 44.6693H99.9079C99.7011 44.6693 99.5253 44.5955 99.3805 44.4373C99.2358 44.2791 99.1634 44.0998 99.153 43.8784V43.1192H100.218C100.745 43.0981 101.138 42.9399 101.418 42.6447C101.697 42.3494 101.873 42.012 101.966 41.6429L98.7188 33.3125H100.053L100.063 33.323Z" fill="#B5B5B5"/>
<path d="M110.116 41.3687C109.33 41.3476 108.699 41.0735 108.213 40.5462C107.727 40.019 107.469 39.3547 107.469 38.5427V34.1139C107.469 33.903 107.541 33.7132 107.696 33.5656C107.841 33.4179 108.027 33.3336 108.234 33.323H109.526V38.0577C109.526 38.5322 109.63 38.9329 109.847 39.2703C110.064 39.6078 110.385 39.787 110.819 39.7976H112.866V33.3125H114.159C114.376 33.3125 114.552 33.4074 114.697 33.555C114.841 33.7027 114.914 33.8819 114.914 34.1034V41.3582H110.137L110.116 41.3687Z" fill="#B5B5B5"/>
<path d="M116.726 44.6716C116.519 44.6716 116.344 44.5978 116.188 44.4396C116.044 44.2814 115.961 44.1022 115.961 43.8807V34.1268C115.961 33.9053 116.033 33.7261 116.188 33.5784C116.333 33.4308 116.519 33.3464 116.726 33.3359H117.946V34.3587C118.277 33.9475 118.68 33.6417 119.135 33.4308C119.59 33.2199 120.076 33.125 120.604 33.125C121.617 33.1355 122.413 33.5046 123.023 34.2428C123.623 34.9809 123.933 36.0143 123.944 37.3324C123.944 38.661 123.623 39.6839 123.023 40.422C122.424 41.1496 121.617 41.5292 120.604 41.5503C120.097 41.5503 119.632 41.4449 119.187 41.2761C118.743 41.0969 118.36 40.8438 118.019 40.5064V44.6716H116.726ZM121.224 35.3605C120.873 34.9282 120.428 34.7067 119.901 34.7067C119.363 34.7067 118.918 34.9598 118.567 35.4238C118.215 35.8877 118.029 36.531 118.019 37.3429C118.019 38.1549 118.215 38.7981 118.567 39.2621C118.918 39.7261 119.363 39.9686 119.901 39.9791C120.438 39.9791 120.873 39.7577 121.224 39.3254C121.576 38.893 121.762 38.2287 121.783 37.3429C121.762 36.4572 121.576 35.7928 121.224 35.3605Z" fill="#B5B5B5"/>
<path d="M135.697 41.3768C135.252 41.3768 134.818 41.1237 134.622 40.6386L133.205 37.1799C132.905 37.2116 132.584 37.2221 132.264 37.2221H130.899V41.3768H129.606C129.193 41.3768 128.852 41.0183 128.852 40.5859V31.3065C128.852 30.8847 129.203 30.5156 129.606 30.5156H132.264C134.601 30.5156 136.669 31.2749 136.669 33.8689C136.669 35.3135 136.017 36.1993 135.045 36.6843L137.124 41.3768H135.697ZM132.264 32.0973H130.899V35.651H132.264C133.505 35.651 134.539 35.2292 134.539 33.8689C134.539 32.5086 133.505 32.0868 132.264 32.0868V32.0973Z" fill="#B5B5B5"/>
<path d="M138.489 41.369C138.076 41.369 137.734 41.0104 137.734 40.5781V31.2987C137.734 30.8769 138.086 30.5078 138.489 30.5078H144.611V31.2987C144.611 31.7205 144.259 32.0895 143.856 32.0895H139.792V35.0737H144.29V35.8646C144.29 36.2864 143.939 36.6554 143.535 36.6554H139.802V39.7978H143.897C144.311 39.7978 144.652 40.1563 144.652 40.5887V41.3795H138.5L138.489 41.369Z" fill="#B5B5B5"/>
<path d="M146.388 41.369C145.974 41.369 145.633 41.0105 145.633 40.5781V31.2987C145.633 30.8769 145.984 30.5078 146.388 30.5078H147.691V41.3584H146.388V41.369Z" fill="#B5B5B5"/>
<path d="M152.219 41.3717C151.805 41.3717 151.464 41.0132 151.464 40.5808V32.0817H149.138C148.724 32.0817 148.383 31.7232 148.383 31.2909V30.5H156.593V31.2909C156.593 31.7127 156.242 32.0817 155.838 32.0817H153.512V41.3612H152.219V41.3717Z" fill="#B5B5B5"/>
<path d="M157.877 35.5472C157.877 36.317 158.849 36.4435 159.666 36.7915C160.907 37.3082 161.445 37.9409 161.445 39.0903C161.445 40.8091 159.656 41.5577 158.074 41.5577C156.947 41.5577 156.057 41.1992 155.344 40.7669L155.561 40.1236C155.716 39.6808 156.14 39.5753 156.533 39.7018C156.957 39.8389 157.401 39.9866 157.919 39.9866C158.508 39.9866 159.304 39.8495 159.304 39.1324C159.304 38.3099 158.529 38.1096 157.557 37.7827C156.388 37.3925 155.706 36.6017 155.706 35.5999C155.706 34.4084 156.657 33.1641 158.58 33.1641C159.656 33.1641 160.555 33.5437 161.165 33.9549L160.948 34.5982C160.814 35.02 160.369 35.1043 159.976 34.9567C159.645 34.8301 159.304 34.7036 158.787 34.7036C158.342 34.7036 157.887 34.904 157.887 35.5577L157.877 35.5472Z" fill="#B5B5B5"/>
<path d="M174.701 41.3662H173.46V32.8882L170.999 40.3012C170.813 40.8495 170.42 41.2186 169.81 41.2186H168.776L166.015 32.8988V41.3768H164.774C164.361 41.3768 164.02 41.0183 164.02 40.5859V30.5156H165.839C166.491 30.5156 167.08 30.8003 167.277 31.3803L169.738 38.7617L172.199 31.3803C172.395 30.8003 172.985 30.5156 173.636 30.5156H175.456V40.5859C175.456 41.0077 175.104 41.3768 174.701 41.3768V41.3662Z" fill="#B5B5B5"/>
<path d="M182.744 41.3679H179.104C177.222 41.3679 176.219 40.3978 176.219 38.9004C176.219 36.918 178.173 35.9057 181.472 36.2432C181.379 35.2836 180.924 34.672 179.941 34.672C178.866 34.672 177.894 34.9883 177.129 35.4945V33.8284C177.884 33.4171 179.166 33.1641 180.086 33.1641C182.196 33.1641 183.498 34.2502 183.498 36.4962V40.5876C183.498 41.0094 183.147 41.3785 182.744 41.3785V41.3679ZM178.266 38.9004C178.266 39.5753 178.98 39.8284 179.6 39.8284H181.482V37.6456C179.6 37.5191 178.266 37.6772 178.266 38.9004Z" fill="#B5B5B5"/>
<path d="M191.172 41.3684H189.88V36.6443C189.88 35.748 189.456 34.9149 188.587 34.9149H186.54V41.3684H185.247C184.833 41.3684 184.492 41.0098 184.492 40.5775V33.3438H189.269C190.8 33.3438 191.927 34.588 191.927 36.1803V40.588C191.927 41.0098 191.575 41.3789 191.172 41.3789V41.3684Z" fill="#B5B5B5"/>
<path d="M199.072 41.3679H195.432C193.55 41.3679 192.547 40.3978 192.547 38.9004C192.547 36.918 194.501 35.9057 197.8 36.2432C197.707 35.2836 197.252 34.672 196.269 34.672C195.194 34.672 194.222 34.9883 193.457 35.4945V33.8284C194.212 33.4171 195.494 33.1641 196.414 33.1641C198.524 33.1641 199.827 34.2502 199.827 36.4962V40.5876C199.827 41.0094 199.475 41.3785 199.072 41.3785V41.3679ZM194.594 38.9004C194.594 39.5753 195.308 39.8284 195.928 39.8284H197.81V37.6456C195.928 37.5191 194.594 37.6772 194.594 38.9004Z" fill="#B5B5B5"/>
<path d="M204.38 44.6661H202.25C201.836 44.6661 201.495 44.3076 201.495 43.8752V43.0844H203.925C205.352 43.0844 206.355 42.3568 206.355 40.8805V40.3111C205.683 40.986 204.773 41.3445 203.77 41.3445C201.784 41.3445 200.43 39.8049 200.43 37.2426C200.43 34.6802 201.784 33.1406 203.77 33.1406C204.804 33.1406 205.755 33.5624 206.427 34.3322V33.3621H207.637C208.051 33.3621 208.392 33.7206 208.392 34.1529V41.0492C208.392 43.3796 206.613 44.6661 204.369 44.6661H204.38ZM204.473 34.7223C203.439 34.7223 202.591 35.5554 202.591 37.2531C202.591 38.9508 203.439 39.7839 204.473 39.7839C205.507 39.7839 206.355 38.7926 206.355 37.2531C206.355 35.7136 205.507 34.7223 204.473 34.7223Z" fill="#B5B5B5"/>
<path d="M213.054 39.9916C213.726 39.9916 214.388 39.8546 214.843 39.6331C215.319 39.4117 215.691 39.5593 215.846 39.9811L216.074 40.6243C215.205 41.2359 214.088 41.5734 213.054 41.5734C210.841 41.5734 209.094 40.0022 209.094 37.3765C209.094 34.7509 210.841 33.1797 213.054 33.1797C215.267 33.1797 216.756 34.7509 216.756 37.3765C216.756 37.6929 216.725 37.9776 216.684 38.2623H211.327C211.555 39.359 212.206 40.0127 213.054 40.0127V39.9916ZM213.054 34.7403C212.154 34.7403 211.472 35.4679 211.296 36.67H214.605C214.605 35.4257 213.954 34.7403 213.054 34.7403Z" fill="#B5B5B5"/>
<path d="M219.485 34.9149V41.3684H218.192C217.779 41.3684 217.438 41.0098 217.438 40.5775V33.3438H225.027C226.558 33.3438 227.685 34.588 227.685 36.1803V40.588C227.685 41.0098 227.333 41.3789 226.93 41.3789H225.637V36.6548C225.637 35.7585 225.213 34.9255 224.345 34.9255H223.528V41.3789H222.266C221.853 41.3789 221.512 41.0204 221.512 40.588V34.9255H219.495L219.485 34.9149Z" fill="#B5B5B5"/>
<path d="M232.328 39.9916C233 39.9916 233.661 39.8546 234.116 39.6331C234.592 39.4117 234.964 39.5593 235.119 39.9811L235.347 40.6243C234.478 41.2359 233.362 41.5734 232.328 41.5734C230.115 41.5734 228.367 40.0022 228.367 37.3765C228.367 34.7509 230.115 33.1797 232.328 33.1797C234.54 33.1797 236.029 34.7509 236.029 37.3765C236.029 37.6929 235.998 37.9776 235.957 38.2623H230.601C230.828 39.359 231.48 40.0127 232.328 40.0127V39.9916ZM232.328 34.7403C231.428 34.7403 230.745 35.4679 230.57 36.67H233.879C233.879 35.4257 233.227 34.7403 232.328 34.7403Z" fill="#B5B5B5"/>
<path d="M243.403 41.3684H242.11V36.6443C242.11 35.748 241.686 34.9149 240.817 34.9149H238.77V41.3684H237.478C237.064 41.3684 236.723 41.0098 236.723 40.5775V33.3438H241.5C243.03 33.3438 244.157 34.588 244.157 36.1803V40.588C244.157 41.0098 243.806 41.3789 243.403 41.3789V41.3684Z" fill="#B5B5B5"/>
<path d="M249.243 41.3691H248.53C247.268 41.3691 246.131 40.4306 246.131 39.123V35.0844H245.376C244.962 35.0844 244.621 34.7259 244.621 34.2935V33.5027H246.141V31.9315C246.141 31.5097 246.493 31.1406 246.896 31.1406H248.189V33.5027H249.864V34.2935C249.864 34.7153 249.512 35.0844 249.109 35.0844H248.199V38.7013C248.199 39.3023 248.685 39.7979 249.264 39.7979H250.019V40.5888C250.019 41.0106 249.667 41.3796 249.264 41.3796L249.243 41.3691Z" fill="#B5B5B5"/>
</g>
<defs>
<clipPath id="clip0_2744_31803">
<rect width="250" height="48" fill="white"/>
</clipPath>
</defs>
</svg>
