<svg width="202" height="38" viewBox="0 0 202 38" fill="none" xmlns="http://www.w3.org/2000/svg">
<g clip-path="url(#clip0_2606_117152)">
<path d="M22.8938 0L15.391 3.76494L7.89648 0L15.391 14.25L22.8938 0Z" fill="#FBB900"/>
<path d="M25.5163 11.0079L25.3993 10.9078L30.7466 8.66215V1.14062L21.4474 5.09757C21.4474 5.09757 16.4177 14.631 16.2923 14.848C20.2359 15.3155 23.202 18.6296 23.202 22.6033C23.202 26.9108 19.6928 30.4253 15.3816 30.4253C11.0704 30.4253 7.56132 26.9192 7.56132 22.6033C7.56132 18.6213 10.519 15.3155 14.4626 14.848C14.3456 14.631 9.32423 5.09757 9.32423 5.09757L0.0417752 1.14062V8.66215L5.38901 10.9078L5.27204 11.0079C1.92166 13.9381 0 18.1705 0 22.6116C0 31.0932 6.90127 38.0053 15.39 38.0053C23.8787 38.0053 30.7884 31.1015 30.7884 22.6116C30.7884 18.1705 28.8667 13.9464 25.5163 11.0079Z" fill="#FBB900"/>
<path d="M59.5551 3.35938H57.0821V15.5892L49.6628 5.82203C48.4262 4.39452 47.5824 3.35938 45.6106 3.35938H43.0957V18.0685C43.0957 18.7614 43.5636 19.3291 44.1568 19.3291H46.6215V7.04083L54.0909 16.7412C55.3526 18.2021 56.4721 19.3207 58.3019 19.3207H60.6079V4.61157C60.6079 3.91869 60.1316 3.35938 59.5468 3.35938H59.5551Z" fill="#005CAA"/>
<path d="M79.7314 3.35938H77.2666V9.72053H67.1821V3.35938H64.7173C64.1325 3.35938 63.6562 3.91869 63.6562 4.61157V18.0685C63.6562 18.7614 64.1325 19.3291 64.7173 19.3291H67.1821V12.4837H77.2666V19.3207H79.7314C80.3162 19.3207 80.7924 18.753 80.7924 18.0602V4.61157C80.7924 3.91869 80.3246 3.35938 79.7314 3.35938Z" fill="#005CAA"/>
<path d="M97.0022 13.2926C97.8043 13.8018 98.2889 14.5532 98.2889 15.5466C98.2889 17.717 95.9495 18.7105 93.0503 18.7105C90.1511 18.7105 87.82 17.717 87.82 15.5466C87.82 13.3761 90.126 12.3827 93.0503 12.3827H93.0168H101.723C101.84 12.3827 101.932 12.2909 101.948 12.1406C101.948 12.0738 102.007 11.7065 101.948 11.406C101.923 11.2808 101.84 11.1973 101.723 11.1973H94.4121V8.93497H101.372C101.489 8.93497 101.581 8.84315 101.597 8.70123C101.606 8.63445 101.656 8.26714 101.597 7.95826C101.572 7.83304 101.489 7.75791 101.364 7.75791H88.1793C87.8116 7.75791 87.5025 7.46573 87.5025 7.11511V3.90114C87.5025 3.54218 87.2017 3.25 86.8257 3.25H84.7537V7.71617C84.7537 8.38401 85.3218 8.93497 86.032 8.93497H91.655V11.1973H83.584L84.361 12.3827H86.7673C85.7062 13.1006 85.0795 14.1107 85.0795 15.413C85.0795 18.5101 88.6471 19.9209 93.0419 19.9209C97.4367 19.9209 101.013 18.5101 101.013 15.413C101.013 14.5866 100.762 13.8853 100.311 13.301H96.9938L97.0022 13.2926Z" fill="#005CAA"/>
<path d="M112.117 6.06437C112.259 6.22298 112.385 6.39829 112.493 6.59864C112.727 7.01604 112.869 7.50857 112.869 8.02614C112.869 9.62895 111.716 10.9229 110.012 10.9229C108.307 10.9229 107.154 9.62895 107.154 8.02614C107.154 6.42333 108.374 5.15444 109.97 5.13774H116.119C116.236 5.13774 116.328 5.03757 116.345 4.89565C116.353 4.82887 116.403 4.44486 116.345 4.13598C116.32 4.01076 116.236 3.92728 116.111 3.92728H111.415V3.28449C111.415 2.92553 111.106 2.625 110.722 2.625H108.591V3.92728H103.244C103.353 4.0859 104.013 5.08765 104.046 5.12939H106.06C105.024 5.86402 104.389 6.89082 104.389 8.01779C104.389 10.2634 106.645 12.0833 110.003 12.0833C112.259 12.0833 113.914 11.2652 114.874 10.0297H118.759V14.4374H108.433V13.2102C108.433 12.8346 108.123 12.5424 107.739 12.5424H105.617V18.027C105.617 18.7116 106.21 19.2709 106.929 19.2709H121.592V3.61006C121.592 3.24275 121.274 2.95057 120.898 2.95057H118.759V6.06437H112.1H112.117ZM118.776 18.0771H108.825C108.616 18.0771 108.449 17.9185 108.449 17.7098V15.6478H118.776V18.0771ZM118.776 8.82755H115.509C115.585 8.56876 115.618 8.29328 115.618 8.01779C115.618 7.76735 115.585 7.51692 115.526 7.26648H118.776V8.82755Z" fill="#005CAA"/>
<path d="M154.277 5.68355H160.301C160.493 5.68355 160.535 5.4498 160.535 5.09084C160.535 4.73188 160.493 4.49813 160.301 4.49813H154.294V3.88038C154.286 3.68838 154.21 3.52142 154.085 3.38785C153.951 3.25428 153.793 3.1875 153.592 3.1875H150.877V4.49813H144.686L145.454 5.68355H150.994C151.01 5.93398 151.253 11.861 143.691 13.1383L144.477 14.2987C144.477 14.2987 149.674 14.1317 152.64 10.0579C155.606 14.1234 160.803 14.2987 160.803 14.2987L161.588 13.1383C153.868 11.836 154.286 5.68355 154.286 5.68355H154.277Z" fill="#005CAA"/>
<path d="M161.998 17.6016H143.023L143.809 18.8204H161.998C162.19 18.8204 162.24 18.5783 162.24 18.211C162.24 17.8437 162.19 17.6016 161.998 17.6016Z" fill="#005CAA"/>
<path d="M181.731 12.9983H174.663V15.9535H171.914V12.9983H164.102L163.342 11.8129H181.731C181.923 11.8129 181.965 12.0466 181.965 12.4056C181.965 12.7646 181.923 12.9983 181.731 12.9983ZM172.867 10.4605C168.296 10.4605 164.829 9.30014 164.829 6.87088C164.829 4.44162 168.296 3.28125 172.867 3.28125C177.437 3.28125 180.904 4.44162 180.904 6.87088C180.904 9.30014 177.437 10.4605 172.867 10.4605ZM181.096 19.3428H166.091C165.389 19.3428 164.821 18.7751 164.821 18.0739V14.2672H166.934C167.269 14.2672 167.569 14.5677 167.569 14.9016V17.5229C167.569 17.8652 167.862 18.1573 168.204 18.1573H181.088C181.28 18.1573 181.322 18.3911 181.322 18.7501C181.322 19.109 181.28 19.3428 181.088 19.3428H181.096ZM172.867 4.45831C169.859 4.45831 167.661 5.20129 167.661 6.87088C167.661 8.54048 169.859 9.28345 172.867 9.28345C175.874 9.28345 178.072 8.54048 178.072 6.87088C178.072 5.20129 175.874 4.45831 172.867 4.45831Z" fill="#005CAA"/>
<path d="M201.977 12.2127C201.96 12.1543 201.935 12.1042 201.893 12.0708C201.86 12.0374 201.818 12.0207 201.768 12.0207H198.083V9.67495C199.838 9.08224 200.941 8.11388 200.941 6.76151C200.941 4.33224 197.473 3.17188 192.903 3.17188C188.333 3.17188 184.866 4.33224 184.866 6.76151C184.866 8.11388 185.968 9.09059 187.723 9.67495V12.0207H183.387L184.147 13.2061H186.603C185.542 13.8823 184.899 14.7505 184.899 15.961C184.899 18.8577 188.517 20.1767 192.97 20.1767C197.423 20.1767 201.041 18.8577 201.041 15.961C201.041 15.193 200.79 14.5335 200.322 13.9825H196.964C197.782 14.4583 198.275 15.1596 198.275 16.0945C198.275 18.1231 195.903 19.0497 192.97 19.0497C190.037 19.0497 187.664 18.1231 187.664 16.0945C187.664 14.066 190.004 13.2061 192.97 13.2061H201.768C201.843 13.2061 201.893 13.1644 201.935 13.0976C201.96 13.0642 201.977 13.0225 201.985 12.9808C201.993 12.914 202.044 12.5049 201.985 12.2127H201.977ZM187.698 6.75316C187.698 5.08356 189.895 4.34059 192.903 4.34059C195.911 4.34059 198.108 5.08356 198.108 6.75316C198.108 8.42275 195.911 9.16572 192.903 9.16572C189.895 9.16572 187.698 8.42275 187.698 6.75316ZM190.472 10.2176C191.232 10.301 192.059 10.3428 192.903 10.3428C193.747 10.3428 194.574 10.301 195.334 10.2176V12.0124H190.472V10.2176Z" fill="#005CAA"/>
<path d="M140.7 2.85938H138.578V19.2381H141.385V3.53556C141.385 3.1766 141.068 2.85938 140.709 2.85938H140.7Z" fill="#005CAA"/>
<path d="M127.757 16.4922C127.407 16.4922 127.106 16.2 127.106 15.8661V10.9074H135.185V4.32922C135.185 3.9953 134.876 3.70312 134.533 3.70312H123.822L124.583 4.87184H132.353V9.74706H124.273V16.4087C124.273 17.0933 124.867 17.6609 125.585 17.6609H136.221V16.4922H127.766H127.757Z" fill="#005CAA"/>
<path d="M49.0626 32.739C48.8036 32.739 48.578 32.689 48.3859 32.5888C48.1937 32.4886 48.0349 32.33 47.9096 32.1213L44.7598 26.1274V32.7474H43.7154C43.5483 32.7474 43.4063 32.689 43.2893 32.5637C43.1723 32.4385 43.1138 32.2966 43.1055 32.138V24.1406H44.459C44.7096 24.1406 44.9269 24.1824 45.1274 24.2825C45.3196 24.3827 45.4783 24.5497 45.6036 24.7751L48.7535 30.7606V24.1406H49.7979C49.965 24.1406 50.107 24.1991 50.2323 24.3243C50.3493 24.4495 50.4078 24.5914 50.4078 24.7667V32.7557H49.0626V32.739Z" fill="#005CAA"/>
<path d="M57.2854 31.3528C57.0013 31.8453 56.6003 32.2293 56.1073 32.4881C55.606 32.7469 55.0462 32.8804 54.4112 32.8888C53.7679 32.8888 53.1998 32.7469 52.6985 32.4881C52.2055 32.2293 51.8128 31.8453 51.5288 31.3528C51.2447 30.8602 51.0943 30.2592 51.0859 29.5579C51.0859 28.8567 51.2447 28.2557 51.5288 27.7631C51.8128 27.2706 52.2055 26.8866 52.7068 26.6195C53.2081 26.3523 53.7763 26.2188 54.4112 26.2188C55.0462 26.2188 55.606 26.3523 56.099 26.6195C56.6003 26.8782 57.0013 27.2622 57.2854 27.7548C57.5695 28.2473 57.7198 28.8484 57.7282 29.5496C57.7282 30.2508 57.5695 30.8519 57.2854 31.3444V31.3528ZM55.5308 28.0303C55.2384 27.663 54.8624 27.4793 54.4112 27.4709C53.9517 27.4709 53.5674 27.663 53.275 28.0303C52.9825 28.3976 52.8321 28.9068 52.8238 29.5579C52.8238 30.2174 52.9825 30.7267 53.275 31.094C53.5674 31.4529 53.9434 31.6449 54.4112 31.6533C54.8624 31.6533 55.2384 31.4613 55.5308 31.094C55.8232 30.735 55.9736 30.2174 55.9904 29.5579C55.9736 28.9068 55.8232 28.3976 55.5308 28.0303Z" fill="#005CAA"/>
<path d="M64.1097 32.5603C63.9927 32.6855 63.8507 32.744 63.6752 32.744H62.6309V29.0041C62.6309 28.6368 62.5473 28.3195 62.3719 28.0524C62.1964 27.7853 61.9374 27.6434 61.5865 27.6267H59.9322V32.744H58.8878C58.7207 32.744 58.5787 32.6855 58.4533 32.5603C58.3364 32.4351 58.2695 32.2932 58.2695 32.1346V26.3828H62.1296C62.7645 26.3995 63.2742 26.6166 63.6669 27.034C64.0596 27.4514 64.2601 27.9856 64.2685 28.6284V32.1346C64.2685 32.3015 64.21 32.4434 64.093 32.5603H64.1097Z" fill="#005CAA"/>
<path d="M70.8359 34.058C70.5519 34.4921 70.1592 34.8177 69.6746 35.0348C69.19 35.2518 68.6386 35.3603 68.0203 35.3603H66.3075C66.1404 35.3603 65.9984 35.3019 65.873 35.1767C65.7561 35.0514 65.6892 34.9095 65.6892 34.7342V34.1081H67.6527C68.2375 34.1081 68.7054 33.9662 69.0647 33.674C69.4239 33.3819 69.5994 32.9478 69.6078 32.3634V31.921C69.3404 32.1881 69.0229 32.3884 68.6636 32.522C68.3044 32.6556 67.9284 32.7224 67.519 32.7224C66.7085 32.7224 66.0569 32.4302 65.5723 31.8625C65.0877 31.2949 64.837 30.5018 64.8203 29.475C64.837 28.4482 65.0877 27.6468 65.5723 27.0791C66.0569 26.5115 66.7002 26.2193 67.519 26.2109C67.9451 26.2109 68.3378 26.2944 68.7054 26.453C69.073 26.62 69.3989 26.8537 69.6746 27.1626V26.3779H70.6605C70.8276 26.3862 70.9696 26.453 71.0866 26.5699C71.2036 26.6868 71.2621 26.8287 71.2704 27.004V32.4803C71.2704 33.098 71.1117 33.6239 70.8276 34.0413L70.8359 34.058ZM69.1733 28.0225C68.8892 27.6635 68.53 27.4798 68.0955 27.4715C67.6694 27.4715 67.3185 27.6384 67.026 27.9724C66.742 28.3063 66.5916 28.8072 66.5832 29.4833C66.5832 30.1595 66.742 30.6604 67.026 30.9943C67.3101 31.3282 67.6694 31.4952 68.0955 31.4952C68.53 31.4952 68.8892 31.3032 69.1733 30.9442C69.4574 30.5853 69.6078 30.1011 69.6161 29.475C69.6161 28.8572 69.4574 28.3647 69.1733 28.0058V28.0225Z" fill="#005CAA"/>
<path d="M72.8658 32.7401C72.6987 32.7401 72.5566 32.6817 72.4397 32.5565C72.3227 32.4312 72.2642 32.2893 72.2559 32.1307V24.7511C72.2559 24.5841 72.3227 24.4339 72.4397 24.3087C72.5566 24.1834 72.6987 24.125 72.8658 24.125H73.9352V27.556H77.695V24.125H78.7644C78.9315 24.125 79.0736 24.1834 79.1905 24.3087C79.3075 24.4339 79.366 24.5758 79.3744 24.7511V32.1307C79.3744 32.2977 79.3075 32.4396 79.1905 32.5565C79.0736 32.6817 78.9315 32.7401 78.7644 32.7401H77.695V28.8833H73.9352V32.7401H72.8658Z" fill="#005CAA"/>
<path d="M80.8537 26.3677C81.0793 26.3677 81.2715 26.4262 81.4386 26.543C81.6057 26.6599 81.731 26.8269 81.8229 27.0523L83.2349 30.9758L84.672 27.0523C84.7555 26.8352 84.8725 26.6599 85.0396 26.543C85.2067 26.4262 85.4072 26.3677 85.6412 26.3677H86.5602L83.8532 33.0461C83.5441 33.8308 83.2015 34.4068 82.8255 34.7825C82.4495 35.1581 81.9733 35.3501 81.3885 35.3501H80.7284C80.5613 35.3501 80.4193 35.2917 80.3023 35.1665C80.1853 35.0413 80.1268 34.8994 80.1185 34.724V34.123H80.9791C81.4052 34.1063 81.7227 33.9811 81.9482 33.7473C82.1738 33.5136 82.3159 33.2465 82.3911 32.9543L79.7676 26.3594H80.8454L80.8537 26.3677Z" fill="#005CAA"/>
<path d="M88.9748 32.7372C88.3398 32.7205 87.8302 32.5035 87.4375 32.0861C87.0448 31.6687 86.8359 31.1428 86.8359 30.5V26.9938C86.8359 26.8269 86.8944 26.6766 87.0197 26.5597C87.1367 26.4429 87.2871 26.3761 87.4542 26.3677H88.4986V30.116C88.4986 30.4916 88.5821 30.8088 88.7576 31.076C88.9331 31.3431 89.1921 31.485 89.543 31.4934H91.1973V26.3594H92.2417C92.4171 26.3594 92.5591 26.4345 92.6761 26.5514C92.7931 26.6682 92.8516 26.8102 92.8516 26.9855V32.7289H88.9915L88.9748 32.7372Z" fill="#005CAA"/>
<path d="M94.3136 35.3598C94.1465 35.3598 94.0045 35.3014 93.8791 35.1761C93.7622 35.0509 93.6953 34.909 93.6953 34.7337V27.0118C93.6953 26.8365 93.7538 26.6946 93.8791 26.5777C93.9961 26.4608 94.1465 26.3941 94.3136 26.3857H95.2995V27.1955C95.5668 26.8699 95.8927 26.6278 96.2603 26.4608C96.6279 26.2939 97.0206 26.2188 97.4467 26.2188C98.2655 26.2271 98.9089 26.5193 99.4018 27.1036C99.8864 27.688 100.137 28.5061 100.145 29.5496C100.145 30.6014 99.8864 31.4112 99.4018 31.9956C98.9172 32.5716 98.2655 32.8721 97.4467 32.8888C97.0373 32.8888 96.6614 32.8053 96.3021 32.6717C95.9428 32.5298 95.6337 32.3295 95.358 32.0623V35.3598H94.3136ZM97.948 27.9885C97.664 27.6463 97.3047 27.4709 96.8786 27.4709C96.4441 27.4709 96.0849 27.6713 95.8008 28.0386C95.5167 28.4059 95.3663 28.9151 95.358 29.5579C95.358 30.2007 95.5167 30.71 95.8008 31.0773C96.0849 31.4446 96.4441 31.6366 96.8786 31.6449C97.313 31.6449 97.664 31.4696 97.948 31.1274C98.2321 30.7851 98.3825 30.2592 98.3992 29.5579C98.3825 28.8567 98.2321 28.3308 97.948 27.9885Z" fill="#005CAA"/>
<path d="M109.644 32.7469C109.285 32.7469 108.934 32.5465 108.775 32.1625L107.631 29.4244C107.388 29.4494 107.129 29.4578 106.87 29.4578H105.768V32.7469H104.723C104.389 32.7469 104.113 32.463 104.113 32.1208V24.7745C104.113 24.4406 104.397 24.1484 104.723 24.1484H106.87C108.759 24.1484 110.43 24.7495 110.43 26.8031C110.43 27.9468 109.903 28.648 109.118 29.032L110.797 32.7469H109.644ZM106.87 25.4006H105.768V28.2139H106.87C107.873 28.2139 108.709 27.88 108.709 26.8031C108.709 25.7262 107.873 25.3923 106.87 25.3923V25.4006Z" fill="#005CAA"/>
<path d="M111.899 32.7469C111.565 32.7469 111.289 32.463 111.289 32.1208V24.7745C111.289 24.4406 111.573 24.1484 111.899 24.1484H116.845V24.7745C116.845 25.1085 116.561 25.4006 116.235 25.4006H112.952V27.7631H116.586V28.3892C116.586 28.7231 116.302 29.0153 115.976 29.0153H112.96V31.503H116.269C116.603 31.503 116.879 31.7868 116.879 32.1291V32.7552H111.907L111.899 32.7469Z" fill="#005CAA"/>
<path d="M118.284 32.7469C117.95 32.7469 117.674 32.463 117.674 32.1208V24.7745C117.674 24.4406 117.958 24.1484 118.284 24.1484H119.336V32.7385H118.284V32.7469Z" fill="#005CAA"/>
<path d="M122.994 32.7474C122.66 32.7474 122.384 32.4636 122.384 32.1213V25.3928H120.504C120.17 25.3928 119.895 25.109 119.895 24.7667V24.1406H126.528V24.7667C126.528 25.1006 126.244 25.3928 125.919 25.3928H124.039V32.739H122.994V32.7474Z" fill="#005CAA"/>
<path d="M127.567 28.1366C127.567 28.746 128.352 28.8462 129.012 29.1217C130.015 29.5308 130.449 30.0316 130.449 30.9416C130.449 32.3023 129.004 32.895 127.725 32.895C126.815 32.895 126.096 32.6112 125.52 32.2689L125.695 31.7597C125.82 31.4091 126.163 31.3256 126.48 31.4257C126.823 31.5343 127.182 31.6511 127.6 31.6511C128.076 31.6511 128.72 31.5426 128.72 30.975C128.72 30.3238 128.093 30.1652 127.308 29.9064C126.363 29.5975 125.812 28.9714 125.812 28.1784C125.812 27.2351 126.581 26.25 128.135 26.25C129.004 26.25 129.73 26.5505 130.223 26.8761L130.048 27.3853C129.939 27.7192 129.58 27.786 129.263 27.6692C128.995 27.569 128.72 27.4688 128.302 27.4688C127.942 27.4688 127.575 27.6274 127.575 28.145L127.567 28.1366Z" fill="#005CAA"/>
<path d="M141.158 32.7463H140.156V26.0345L138.167 31.9032C138.017 32.3373 137.699 32.6294 137.206 32.6294H136.371L134.14 26.0429V32.7547H133.137C132.803 32.7547 132.527 32.4708 132.527 32.1286V24.1562H133.998C134.524 24.1562 135 24.3816 135.159 24.8408L137.148 30.6844L139.136 24.8408C139.295 24.3816 139.771 24.1562 140.298 24.1562H141.768V32.1286C141.768 32.4625 141.484 32.7547 141.158 32.7547V32.7463Z" fill="#005CAA"/>
<path d="M147.659 32.7447H144.718C143.197 32.7447 142.387 31.9767 142.387 30.7913C142.387 29.2219 143.966 28.4205 146.631 28.6876C146.556 27.9279 146.188 27.4438 145.395 27.4438C144.526 27.4438 143.74 27.6942 143.122 28.0949V26.7759C143.732 26.4504 144.768 26.25 145.512 26.25C147.216 26.25 148.269 27.1098 148.269 28.888V32.127C148.269 32.4609 147.985 32.7531 147.659 32.7531V32.7447ZM144.041 30.7913C144.041 31.3256 144.618 31.5259 145.119 31.5259H146.639V29.7979C145.119 29.6977 144.041 29.8229 144.041 30.7913Z" fill="#005CAA"/>
<path d="M154.47 32.7513H153.425V29.0114C153.425 28.3018 153.083 27.6423 152.381 27.6423H150.727V32.7513H149.682C149.348 32.7513 149.072 32.4674 149.072 32.1252V26.3984H152.932C154.169 26.3984 155.08 27.3835 155.08 28.644V32.1335C155.08 32.4674 154.795 32.7596 154.47 32.7596V32.7513Z" fill="#005CAA"/>
<path d="M160.852 32.7447H157.911C156.391 32.7447 155.58 31.9767 155.58 30.7913C155.58 29.2219 157.159 28.4205 159.824 28.6876C159.749 27.9279 159.382 27.4438 158.588 27.4438C157.719 27.4438 156.934 27.6942 156.315 28.0949V26.7759C156.925 26.4504 157.961 26.25 158.705 26.25C160.409 26.25 161.462 27.1098 161.462 28.888V32.127C161.462 32.4609 161.178 32.7531 160.852 32.7531V32.7447ZM157.234 30.7913C157.234 31.3256 157.811 31.5259 158.312 31.5259H159.833V29.7979C158.312 29.6977 157.234 29.8229 157.234 30.7913Z" fill="#005CAA"/>
<path d="M165.139 35.3587H163.418C163.084 35.3587 162.808 35.0749 162.808 34.7326V34.1065H164.771C165.924 34.1065 166.735 33.5305 166.735 32.3618V31.911C166.192 32.4453 165.456 32.7291 164.646 32.7291C163.042 32.7291 161.947 31.5103 161.947 29.4817C161.947 27.4532 163.042 26.2344 164.646 26.2344C165.481 26.2344 166.25 26.5683 166.793 27.1777V26.4097H167.771C168.105 26.4097 168.381 26.6935 168.381 27.0358V32.4954C168.381 34.3403 166.944 35.3587 165.131 35.3587H165.139ZM165.214 27.4866C164.379 27.4866 163.693 28.1461 163.693 29.4901C163.693 30.8341 164.379 31.4936 165.214 31.4936C166.05 31.4936 166.735 30.7089 166.735 29.4901C166.735 28.2713 166.05 27.4866 165.214 27.4866Z" fill="#005CAA"/>
<path d="M172.149 31.6584C172.692 31.6584 173.227 31.5499 173.595 31.3746C173.979 31.1993 174.28 31.3162 174.405 31.6501L174.589 32.1593C173.887 32.6435 172.985 32.9106 172.149 32.9106C170.361 32.9106 168.949 31.6668 168.949 29.5881C168.949 27.5095 170.361 26.2656 172.149 26.2656C173.937 26.2656 175.14 27.5095 175.14 29.5881C175.14 29.8386 175.115 30.064 175.082 30.2894H170.754C170.938 31.1575 171.464 31.6751 172.149 31.6751V31.6584ZM172.149 27.5011C171.422 27.5011 170.871 28.0771 170.729 29.0288H173.402C173.402 28.0437 172.876 27.5011 172.149 27.5011Z" fill="#005CAA"/>
<path d="M177.346 27.6423V32.7513H176.301C175.967 32.7513 175.691 32.4674 175.691 32.1252V26.3984H181.824C183.061 26.3984 183.971 27.3835 183.971 28.644V32.1335C183.971 32.4674 183.687 32.7596 183.361 32.7596H182.317V29.0197C182.317 28.3101 181.974 27.6506 181.273 27.6506H180.613V32.7596H179.593C179.259 32.7596 178.983 32.4758 178.983 32.1335V27.6506H177.354L177.346 27.6423Z" fill="#005CAA"/>
<path d="M187.723 31.6584C188.266 31.6584 188.801 31.5499 189.169 31.3746C189.553 31.1993 189.854 31.3162 189.979 31.6501L190.163 32.1593C189.461 32.6435 188.559 32.9106 187.723 32.9106C185.935 32.9106 184.523 31.6668 184.523 29.5881C184.523 27.5095 185.935 26.2656 187.723 26.2656C189.511 26.2656 190.715 27.5095 190.715 29.5881C190.715 29.8386 190.689 30.064 190.656 30.2894H186.328C186.512 31.1575 187.038 31.6751 187.723 31.6751V31.6584ZM187.723 27.5011C186.997 27.5011 186.445 28.0771 186.303 29.0288H188.977C188.977 28.0437 188.45 27.5011 187.723 27.5011Z" fill="#005CAA"/>
<path d="M196.671 32.7513H195.626V29.0114C195.626 28.3018 195.284 27.6423 194.582 27.6423H192.928V32.7513H191.883C191.549 32.7513 191.273 32.4674 191.273 32.1252V26.3984H195.133C196.37 26.3984 197.281 27.3835 197.281 28.644V32.1335C197.281 32.4674 196.997 32.7596 196.671 32.7596V32.7513Z" fill="#005CAA"/>
<path d="M201.391 32.746H200.814C199.795 32.746 198.876 32.003 198.876 30.9679V27.7706H198.266C197.932 27.7706 197.656 27.4867 197.656 27.1445V26.5184H198.884V25.2745C198.884 24.9406 199.169 24.6484 199.494 24.6484H200.539V26.5184H201.892V27.1445C201.892 27.4784 201.608 27.7706 201.282 27.7706H200.547V30.6339C200.547 31.1098 200.94 31.5021 201.408 31.5021H202.018V32.1282C202.018 32.4621 201.734 32.7543 201.408 32.7543L201.391 32.746Z" fill="#005CAA"/>
</g>
<defs>
<clipPath id="clip0_2606_117152">
<rect width="202" height="38" fill="white"/>
</clipPath>
</defs>
</svg>
