<svg width="202" height="38" viewBox="0 0 202 38" fill="none" xmlns="http://www.w3.org/2000/svg">
<g clip-path="url(#clip0_2744_10293)">
<path d="M22.8957 0L15.3929 3.76494L7.89844 0L15.3929 14.25L22.8957 0Z" fill="white"/>
<path d="M25.5163 11.0079L25.3993 10.9078L30.7466 8.66215V1.14062L21.4474 5.09757C21.4474 5.09757 16.4177 14.631 16.2923 14.848C20.2359 15.3155 23.202 18.6296 23.202 22.6033C23.202 26.9108 19.6928 30.4253 15.3816 30.4253C11.0704 30.4253 7.56132 26.9192 7.56132 22.6033C7.56132 18.6213 10.519 15.3155 14.4626 14.848C14.3456 14.631 9.32423 5.09757 9.32423 5.09757L0.0417752 1.14062V8.66215L5.38901 10.9078L5.27204 11.0079C1.92166 13.9381 0 18.1705 0 22.6116C0 31.0932 6.90127 38.0053 15.39 38.0053C23.8787 38.0053 30.7884 31.1015 30.7884 22.6116C30.7884 18.1705 28.8667 13.9464 25.5163 11.0079Z" fill="white"/>
<path d="M59.5532 3.35938H57.0801V15.5892L49.6608 5.82203C48.4243 4.39452 47.5804 3.35938 45.6086 3.35938H43.0938V18.0685C43.0938 18.7614 43.5616 19.3291 44.1548 19.3291H46.6196V7.04083L54.089 16.7412C55.3506 18.2021 56.4702 19.3207 58.2999 19.3207H60.6059V4.61157C60.6059 3.91869 60.1297 3.35938 59.5448 3.35938H59.5532Z" fill="white"/>
<path d="M79.7314 3.35938H77.2666V9.72053H67.1821V3.35938H64.7173C64.1325 3.35938 63.6562 3.91869 63.6562 4.61157V18.0685C63.6562 18.7614 64.1325 19.3291 64.7173 19.3291H67.1821V12.4837H77.2666V19.3207H79.7314C80.3162 19.3207 80.7924 18.753 80.7924 18.0602V4.61157C80.7924 3.91869 80.3246 3.35938 79.7314 3.35938Z" fill="white"/>
<path d="M97.0002 13.2926C97.8023 13.8018 98.2869 14.5532 98.2869 15.5466C98.2869 17.717 95.9475 18.7105 93.0483 18.7105C90.1491 18.7105 87.818 17.717 87.818 15.5466C87.818 13.3761 90.124 12.3827 93.0483 12.3827H93.0149H101.721C101.838 12.3827 101.93 12.2909 101.946 12.1406C101.946 12.0738 102.005 11.7065 101.946 11.406C101.921 11.2808 101.838 11.1973 101.721 11.1973H94.4102V8.93497H101.37C101.487 8.93497 101.579 8.84315 101.596 8.70123C101.604 8.63445 101.654 8.26714 101.596 7.95826C101.57 7.83304 101.487 7.75791 101.362 7.75791H88.1773C87.8097 7.75791 87.5006 7.46573 87.5006 7.11511V3.90114C87.5006 3.54218 87.1998 3.25 86.8238 3.25H84.7517V7.71617C84.7517 8.38401 85.3199 8.93497 86.0301 8.93497H91.653V11.1973H83.582L84.3591 12.3827H86.7653C85.7042 13.1006 85.0776 14.1107 85.0776 15.413C85.0776 18.5101 88.6452 19.9209 93.0399 19.9209C97.4347 19.9209 101.011 18.5101 101.011 15.413C101.011 14.5866 100.76 13.8853 100.309 13.301H96.9919L97.0002 13.2926Z" fill="white"/>
<path d="M112.115 6.06437C112.257 6.22298 112.383 6.39829 112.491 6.59864C112.725 7.01604 112.867 7.50857 112.867 8.02614C112.867 9.62895 111.714 10.9229 110.01 10.9229C108.305 10.9229 107.152 9.62895 107.152 8.02614C107.152 6.42333 108.372 5.15444 109.968 5.13774H116.117C116.234 5.13774 116.326 5.03757 116.343 4.89565C116.351 4.82887 116.401 4.44486 116.343 4.13598C116.318 4.01076 116.234 3.92728 116.109 3.92728H111.413V3.28449C111.413 2.92553 111.104 2.625 110.72 2.625H108.589V3.92728H103.242C103.351 4.0859 104.011 5.08765 104.044 5.12939H106.058C105.022 5.86402 104.387 6.89082 104.387 8.01779C104.387 10.2634 106.643 12.0833 110.001 12.0833C112.257 12.0833 113.912 11.2652 114.872 10.0297H118.758V14.4374H108.431V13.2102C108.431 12.8346 108.122 12.5424 107.737 12.5424H105.615V18.027C105.615 18.7116 106.208 19.2709 106.927 19.2709H121.59V3.61006C121.59 3.24275 121.272 2.95057 120.896 2.95057H118.758V6.06437H112.099H112.115ZM118.774 18.0771H108.823C108.614 18.0771 108.447 17.9185 108.447 17.7098V15.6478H118.774V18.0771ZM118.774 8.82755H115.507C115.583 8.56876 115.616 8.29328 115.616 8.01779C115.616 7.76735 115.583 7.51692 115.524 7.26648H118.774V8.82755Z" fill="white"/>
<path d="M154.273 5.68355H160.297C160.49 5.68355 160.531 5.4498 160.531 5.09084C160.531 4.73188 160.49 4.49813 160.297 4.49813H154.29V3.88038C154.282 3.68838 154.207 3.52142 154.081 3.38785C153.948 3.25428 153.789 3.1875 153.588 3.1875H150.873V4.49813H144.682L145.45 5.68355H150.99C151.007 5.93398 151.249 11.861 143.688 13.1383L144.473 14.2987C144.473 14.2987 149.67 14.1317 152.636 10.0579C155.602 14.1234 160.799 14.2987 160.799 14.2987L161.584 13.1383C153.864 11.836 154.282 5.68355 154.282 5.68355H154.273Z" fill="white"/>
<path d="M161.998 17.6016H143.023L143.809 18.8204H161.998C162.19 18.8204 162.24 18.5783 162.24 18.211C162.24 17.8437 162.19 17.6016 161.998 17.6016Z" fill="white"/>
<path d="M181.729 12.9983H174.661V15.9535H171.912V12.9983H164.1L163.34 11.8129H181.729C181.921 11.8129 181.963 12.0466 181.963 12.4056C181.963 12.7646 181.921 12.9983 181.729 12.9983ZM172.865 10.4605C168.294 10.4605 164.827 9.30014 164.827 6.87088C164.827 4.44162 168.294 3.28125 172.865 3.28125C177.435 3.28125 180.902 4.44162 180.902 6.87088C180.902 9.30014 177.435 10.4605 172.865 10.4605ZM181.094 19.3428H166.089C165.387 19.3428 164.819 18.7751 164.819 18.0739V14.2672H166.933C167.267 14.2672 167.567 14.5677 167.567 14.9016V17.5229C167.567 17.8652 167.86 18.1573 168.202 18.1573H181.086C181.278 18.1573 181.32 18.3911 181.32 18.7501C181.32 19.109 181.278 19.3428 181.086 19.3428H181.094ZM172.865 4.45831C169.857 4.45831 167.659 5.20129 167.659 6.87088C167.659 8.54048 169.857 9.28345 172.865 9.28345C175.872 9.28345 178.07 8.54048 178.07 6.87088C178.07 5.20129 175.872 4.45831 172.865 4.45831Z" fill="white"/>
<path d="M201.973 12.2127C201.956 12.1543 201.931 12.1042 201.889 12.0708C201.856 12.0374 201.814 12.0207 201.764 12.0207H198.079V9.67495C199.834 9.08224 200.937 8.11388 200.937 6.76151C200.937 4.33224 197.469 3.17188 192.899 3.17188C188.329 3.17188 184.862 4.33224 184.862 6.76151C184.862 8.11388 185.965 9.09059 187.719 9.67495V12.0207H183.383L184.143 13.2061H186.599C185.538 13.8823 184.895 14.7505 184.895 15.961C184.895 18.8577 188.513 20.1767 192.966 20.1767C197.419 20.1767 201.037 18.8577 201.037 15.961C201.037 15.193 200.786 14.5335 200.318 13.9825H196.96C197.779 14.4583 198.272 15.1596 198.272 16.0945C198.272 18.1231 195.899 19.0497 192.966 19.0497C190.033 19.0497 187.661 18.1231 187.661 16.0945C187.661 14.066 190 13.2061 192.966 13.2061H201.764C201.839 13.2061 201.889 13.1644 201.931 13.0976C201.956 13.0642 201.973 13.0225 201.981 12.9808C201.99 12.914 202.04 12.5049 201.981 12.2127H201.973ZM187.694 6.75316C187.694 5.08356 189.891 4.34059 192.899 4.34059C195.907 4.34059 198.104 5.08356 198.104 6.75316C198.104 8.42275 195.907 9.16572 192.899 9.16572C189.891 9.16572 187.694 8.42275 187.694 6.75316ZM190.468 10.2176C191.228 10.301 192.055 10.3428 192.899 10.3428C193.743 10.3428 194.57 10.301 195.331 10.2176V12.0124H190.468V10.2176Z" fill="white"/>
<path d="M140.7 2.85938H138.578V19.2381H141.385V3.53556C141.385 3.1766 141.068 2.85938 140.709 2.85938H140.7Z" fill="white"/>
<path d="M127.756 16.4922C127.405 16.4922 127.104 16.2 127.104 15.8661V10.9074H135.183V4.32922C135.183 3.9953 134.874 3.70312 134.531 3.70312H123.82L124.581 4.87184H132.351V9.74706H124.271V16.4087C124.271 17.0933 124.865 17.6609 125.583 17.6609H136.219V16.4922H127.764H127.756Z" fill="white"/>
<path d="M49.0587 32.739C48.7997 32.739 48.5741 32.689 48.382 32.5888C48.1898 32.4886 48.031 32.33 47.9057 32.1213L44.7559 26.1274V32.7474H43.7115C43.5444 32.7474 43.4023 32.689 43.2854 32.5637C43.1684 32.4385 43.1099 32.2966 43.1016 32.138V24.1406H44.4551C44.7057 24.1406 44.923 24.1824 45.1235 24.2825C45.3156 24.3827 45.4744 24.5497 45.5997 24.7751L48.7496 30.7606V24.1406H49.794C49.9611 24.1406 50.1031 24.1991 50.2284 24.3243C50.3454 24.4495 50.4039 24.5914 50.4039 24.7667V32.7557H49.0587V32.739Z" fill="white"/>
<path d="M57.2815 31.3528C56.9974 31.8453 56.5964 32.2293 56.1034 32.4881C55.6021 32.7469 55.0423 32.8804 54.4073 32.8888C53.764 32.8888 53.1959 32.7469 52.6946 32.4881C52.2016 32.2293 51.8089 31.8453 51.5248 31.3528C51.2408 30.8602 51.0904 30.2592 51.082 29.5579C51.082 28.8567 51.2408 28.2557 51.5248 27.7631C51.8089 27.2706 52.2016 26.8866 52.7029 26.6195C53.2042 26.3523 53.7724 26.2188 54.4073 26.2188C55.0423 26.2188 55.6021 26.3523 56.0951 26.6195C56.5964 26.8782 56.9974 27.2622 57.2815 27.7548C57.5655 28.2473 57.7159 28.8484 57.7243 29.5496C57.7243 30.2508 57.5655 30.8519 57.2815 31.3444V31.3528ZM55.5269 28.0303C55.2345 27.663 54.8585 27.4793 54.4073 27.4709C53.9478 27.4709 53.5635 27.663 53.2711 28.0303C52.9786 28.3976 52.8282 28.9068 52.8199 29.5579C52.8199 30.2174 52.9786 30.7267 53.2711 31.094C53.5635 31.4529 53.9395 31.6449 54.4073 31.6533C54.8585 31.6533 55.2345 31.4613 55.5269 31.094C55.8193 30.735 55.9697 30.2174 55.9864 29.5579C55.9697 28.9068 55.8193 28.3976 55.5269 28.0303Z" fill="white"/>
<path d="M64.1058 32.5603C63.9888 32.6855 63.8468 32.744 63.6713 32.744H62.627V29.0041C62.627 28.6368 62.5434 28.3195 62.368 28.0524C62.1925 27.7853 61.9335 27.6434 61.5826 27.6267H59.9283V32.744H58.8839C58.7168 32.744 58.5748 32.6855 58.4494 32.5603C58.3325 32.4351 58.2656 32.2932 58.2656 32.1346V26.3828H62.1257C62.7606 26.3995 63.2703 26.6166 63.663 27.034C64.0557 27.4514 64.2562 27.9856 64.2645 28.6284V32.1346C64.2645 32.3015 64.2061 32.4434 64.0891 32.5603H64.1058Z" fill="white"/>
<path d="M70.832 34.058C70.548 34.4921 70.1553 34.8177 69.6707 35.0348C69.1861 35.2518 68.6347 35.3603 68.0164 35.3603H66.3036C66.1365 35.3603 65.9945 35.3019 65.8691 35.1767C65.7522 35.0514 65.6853 34.9095 65.6853 34.7342V34.1081H67.6488C68.2336 34.1081 68.7015 33.9662 69.0608 33.674C69.42 33.3819 69.5955 32.9478 69.6038 32.3634V31.921C69.3365 32.1881 69.019 32.3884 68.6597 32.522C68.3005 32.6556 67.9245 32.7224 67.5151 32.7224C66.7046 32.7224 66.053 32.4302 65.5684 31.8625C65.0838 31.2949 64.8331 30.5018 64.8164 29.475C64.8331 28.4482 65.0838 27.6468 65.5684 27.0791C66.053 26.5115 66.6963 26.2193 67.5151 26.2109C67.9412 26.2109 68.3339 26.2944 68.7015 26.453C69.0691 26.62 69.395 26.8537 69.6707 27.1626V26.3779H70.6566C70.8237 26.3862 70.9657 26.453 71.0827 26.5699C71.1997 26.6868 71.2581 26.8287 71.2665 27.004V32.4803C71.2665 33.098 71.1078 33.6239 70.8237 34.0413L70.832 34.058ZM69.1694 28.0225C68.8853 27.6635 68.526 27.4798 68.0916 27.4715C67.6655 27.4715 67.3146 27.6384 67.0221 27.9724C66.7381 28.3063 66.5877 28.8072 66.5793 29.4833C66.5793 30.1595 66.7381 30.6604 67.0221 30.9943C67.3062 31.3282 67.6655 31.4952 68.0916 31.4952C68.526 31.4952 68.8853 31.3032 69.1694 30.9442C69.4535 30.5853 69.6038 30.1011 69.6122 29.475C69.6122 28.8572 69.4535 28.3647 69.1694 28.0058V28.0225Z" fill="white"/>
<path d="M72.8599 32.7401C72.6928 32.7401 72.5508 32.6817 72.4338 32.5565C72.3168 32.4312 72.2584 32.2893 72.25 32.1307V24.7511C72.25 24.5841 72.3168 24.4339 72.4338 24.3087C72.5508 24.1834 72.6928 24.125 72.8599 24.125H73.9294V27.556H77.6891V24.125H78.7586C78.9257 24.125 79.0677 24.1834 79.1847 24.3087C79.3017 24.4339 79.3601 24.5758 79.3685 24.7511V32.1307C79.3685 32.2977 79.3017 32.4396 79.1847 32.5565C79.0677 32.6817 78.9257 32.7401 78.7586 32.7401H77.6891V28.8833H73.9294V32.7401H72.8599Z" fill="white"/>
<path d="M80.8518 26.3677C81.0774 26.3677 81.2695 26.4262 81.4366 26.543C81.6037 26.6599 81.7291 26.8269 81.821 27.0523L83.233 30.9758L84.67 27.0523C84.7536 26.8352 84.8706 26.6599 85.0377 26.543C85.2048 26.4262 85.4053 26.3677 85.6392 26.3677H86.5583L83.8512 33.0461C83.5421 33.8308 83.1995 34.4068 82.8236 34.7825C82.4476 35.1581 81.9714 35.3501 81.3865 35.3501H80.7265C80.5594 35.3501 80.4173 35.2917 80.3003 35.1665C80.1834 35.0413 80.1249 34.8994 80.1165 34.724V34.123H80.9771C81.4032 34.1063 81.7207 33.9811 81.9463 33.7473C82.1719 33.5136 82.3139 33.2465 82.3891 32.9543L79.7656 26.3594H80.8434L80.8518 26.3677Z" fill="white"/>
<path d="M88.9709 32.7372C88.3359 32.7205 87.8263 32.5035 87.4336 32.0861C87.0409 31.6687 86.832 31.1428 86.832 30.5V26.9938C86.832 26.8269 86.8905 26.6766 87.0158 26.5597C87.1328 26.4429 87.2832 26.3761 87.4503 26.3677H88.4947V30.116C88.4947 30.4916 88.5782 30.8088 88.7537 31.076C88.9292 31.3431 89.1882 31.485 89.5391 31.4934H91.1934V26.3594H92.2377C92.4132 26.3594 92.5552 26.4345 92.6722 26.5514C92.7892 26.6682 92.8477 26.8102 92.8477 26.9855V32.7289H88.9876L88.9709 32.7372Z" fill="white"/>
<path d="M94.3097 35.3598C94.1426 35.3598 94.0005 35.3014 93.8752 35.1761C93.7582 35.0509 93.6914 34.909 93.6914 34.7337V27.0118C93.6914 26.8365 93.7499 26.6946 93.8752 26.5777C93.9922 26.4608 94.1426 26.3941 94.3097 26.3857H95.2956V27.1955C95.5629 26.8699 95.8888 26.6278 96.2564 26.4608C96.624 26.2939 97.0167 26.2188 97.4428 26.2188C98.2616 26.2271 98.905 26.5193 99.3979 27.1036C99.8825 27.688 100.133 28.5061 100.142 29.5496C100.142 30.6014 99.8825 31.4112 99.3979 31.9956C98.9133 32.5716 98.2616 32.8721 97.4428 32.8888C97.0334 32.8888 96.6575 32.8053 96.2982 32.6717C95.9389 32.5298 95.6298 32.3295 95.3541 32.0623V35.3598H94.3097ZM97.9441 27.9885C97.6601 27.6463 97.3008 27.4709 96.8747 27.4709C96.4402 27.4709 96.081 27.6713 95.7969 28.0386C95.5128 28.4059 95.3624 28.9151 95.3541 29.5579C95.3541 30.2007 95.5128 30.71 95.7969 31.0773C96.081 31.4446 96.4402 31.6366 96.8747 31.6449C97.3091 31.6449 97.6601 31.4696 97.9441 31.1274C98.2282 30.7851 98.3786 30.2592 98.3953 29.5579C98.3786 28.8567 98.2282 28.3308 97.9441 27.9885Z" fill="white"/>
<path d="M109.64 32.7469C109.281 32.7469 108.93 32.5465 108.771 32.1625L107.627 29.4244C107.385 29.4494 107.126 29.4578 106.867 29.4578H105.764V32.7469H104.719C104.385 32.7469 104.109 32.463 104.109 32.1208V24.7745C104.109 24.4406 104.393 24.1484 104.719 24.1484H106.867C108.755 24.1484 110.426 24.7495 110.426 26.8031C110.426 27.9468 109.899 28.648 109.114 29.032L110.793 32.7469H109.64ZM106.867 25.4006H105.764V28.2139H106.867C107.869 28.2139 108.705 27.88 108.705 26.8031C108.705 25.7262 107.869 25.3923 106.867 25.3923V25.4006Z" fill="white"/>
<path d="M111.895 32.7469C111.561 32.7469 111.285 32.463 111.285 32.1208V24.7745C111.285 24.4406 111.569 24.1484 111.895 24.1484H116.841V24.7745C116.841 25.1085 116.557 25.4006 116.231 25.4006H112.948V27.7631H116.582V28.3892C116.582 28.7231 116.298 29.0153 115.972 29.0153H112.956V31.503H116.265C116.599 31.503 116.875 31.7868 116.875 32.1291V32.7552H111.903L111.895 32.7469Z" fill="white"/>
<path d="M118.282 32.7469C117.948 32.7469 117.672 32.463 117.672 32.1208V24.7745C117.672 24.4406 117.956 24.1484 118.282 24.1484H119.335V32.7385H118.282V32.7469Z" fill="white"/>
<path d="M122.99 32.7474C122.656 32.7474 122.38 32.4636 122.38 32.1213V25.3928H120.501C120.166 25.3928 119.891 25.109 119.891 24.7667V24.1406H126.525V24.7667C126.525 25.1006 126.24 25.3928 125.915 25.3928H124.035V32.739H122.99V32.7474Z" fill="white"/>
<path d="M127.563 28.1366C127.563 28.746 128.348 28.8462 129.008 29.1217C130.011 29.5308 130.445 30.0316 130.445 30.9416C130.445 32.3023 129 32.895 127.721 32.895C126.811 32.895 126.092 32.6112 125.516 32.2689L125.691 31.7597C125.816 31.4091 126.159 31.3256 126.476 31.4257C126.819 31.5343 127.178 31.6511 127.596 31.6511C128.072 31.6511 128.716 31.5426 128.716 30.975C128.716 30.3238 128.089 30.1652 127.304 29.9064C126.359 29.5975 125.808 28.9714 125.808 28.1784C125.808 27.2351 126.577 26.25 128.131 26.25C129 26.25 129.727 26.5505 130.22 26.8761L130.044 27.3853C129.935 27.7192 129.576 27.786 129.259 27.6692C128.991 27.569 128.716 27.4688 128.298 27.4688C127.939 27.4688 127.571 27.6274 127.571 28.145L127.563 28.1366Z" fill="white"/>
<path d="M141.154 32.7463H140.152V26.0345L138.163 31.9032C138.013 32.3373 137.695 32.6294 137.202 32.6294H136.367L134.136 26.0429V32.7547H133.133C132.799 32.7547 132.523 32.4708 132.523 32.1286V24.1562H133.994C134.52 24.1562 134.997 24.3816 135.155 24.8408L137.144 30.6844L139.132 24.8408C139.291 24.3816 139.767 24.1562 140.294 24.1562H141.764V32.1286C141.764 32.4625 141.48 32.7547 141.154 32.7547V32.7463Z" fill="white"/>
<path d="M147.655 32.7447H144.714C143.193 32.7447 142.383 31.9767 142.383 30.7913C142.383 29.2219 143.962 28.4205 146.627 28.6876C146.552 27.9279 146.184 27.4438 145.391 27.4438C144.522 27.4438 143.736 27.6942 143.118 28.0949V26.7759C143.728 26.4504 144.764 26.25 145.508 26.25C147.212 26.25 148.265 27.1098 148.265 28.888V32.127C148.265 32.4609 147.981 32.7531 147.655 32.7531V32.7447ZM144.037 30.7913C144.037 31.3256 144.614 31.5259 145.115 31.5259H146.636V29.7979C145.115 29.6977 144.037 29.8229 144.037 30.7913Z" fill="white"/>
<path d="M154.468 32.7513H153.423V29.0114C153.423 28.3018 153.081 27.6423 152.379 27.6423H150.725V32.7513H149.68C149.346 32.7513 149.07 32.4674 149.07 32.1252V26.3984H152.93C154.167 26.3984 155.078 27.3835 155.078 28.644V32.1335C155.078 32.4674 154.794 32.7596 154.468 32.7596V32.7513Z" fill="white"/>
<path d="M160.85 32.7447H157.909C156.389 32.7447 155.578 31.9767 155.578 30.7913C155.578 29.2219 157.157 28.4205 159.822 28.6876C159.747 27.9279 159.38 27.4438 158.586 27.4438C157.717 27.4438 156.932 27.6942 156.313 28.0949V26.7759C156.923 26.4504 157.959 26.25 158.703 26.25C160.407 26.25 161.46 27.1098 161.46 28.888V32.127C161.46 32.4609 161.176 32.7531 160.85 32.7531V32.7447ZM157.232 30.7913C157.232 31.3256 157.809 31.5259 158.31 31.5259H159.831V29.7979C158.31 29.6977 157.232 29.8229 157.232 30.7913Z" fill="white"/>
<path d="M165.137 35.3587H163.416C163.082 35.3587 162.806 35.0749 162.806 34.7326V34.1065H164.769C165.922 34.1065 166.733 33.5305 166.733 32.3618V31.911C166.19 32.4453 165.454 32.7291 164.644 32.7291C163.04 32.7291 161.945 31.5103 161.945 29.4817C161.945 27.4532 163.04 26.2344 164.644 26.2344C165.479 26.2344 166.248 26.5683 166.791 27.1777V26.4097H167.769C168.103 26.4097 168.379 26.6935 168.379 27.0358V32.4954C168.379 34.3403 166.942 35.3587 165.129 35.3587H165.137ZM165.212 27.4866C164.377 27.4866 163.692 28.1461 163.692 29.4901C163.692 30.8341 164.377 31.4936 165.212 31.4936C166.048 31.4936 166.733 30.7089 166.733 29.4901C166.733 28.2713 166.048 27.4866 165.212 27.4866Z" fill="white"/>
<path d="M172.145 31.6584C172.688 31.6584 173.223 31.5499 173.591 31.3746C173.975 31.1993 174.276 31.3162 174.401 31.6501L174.585 32.1593C173.883 32.6435 172.981 32.9106 172.145 32.9106C170.357 32.9106 168.945 31.6668 168.945 29.5881C168.945 27.5095 170.357 26.2656 172.145 26.2656C173.933 26.2656 175.136 27.5095 175.136 29.5881C175.136 29.8386 175.111 30.064 175.078 30.2894H170.75C170.934 31.1575 171.46 31.6751 172.145 31.6751V31.6584ZM172.145 27.5011C171.418 27.5011 170.867 28.0771 170.725 29.0288H173.399C173.399 28.0437 172.872 27.5011 172.145 27.5011Z" fill="white"/>
<path d="M177.342 27.6423V32.7513H176.297C175.963 32.7513 175.688 32.4674 175.688 32.1252V26.3984H181.82C183.057 26.3984 183.967 27.3835 183.967 28.644V32.1335C183.967 32.4674 183.683 32.7596 183.357 32.7596H182.313V29.0197C182.313 28.3101 181.971 27.6506 181.269 27.6506H180.609V32.7596H179.589C179.255 32.7596 178.979 32.4758 178.979 32.1335V27.6506H177.35L177.342 27.6423Z" fill="white"/>
<path d="M187.72 31.6584C188.263 31.6584 188.797 31.5499 189.165 31.3746C189.549 31.1993 189.85 31.3162 189.975 31.6501L190.159 32.1593C189.457 32.6435 188.555 32.9106 187.72 32.9106C185.932 32.9106 184.52 31.6668 184.52 29.5881C184.52 27.5095 185.932 26.2656 187.72 26.2656C189.507 26.2656 190.711 27.5095 190.711 29.5881C190.711 29.8386 190.686 30.064 190.652 30.2894H186.324C186.508 31.1575 187.034 31.6751 187.72 31.6751V31.6584ZM187.72 27.5011C186.993 27.5011 186.441 28.0771 186.299 29.0288H188.973C188.973 28.0437 188.446 27.5011 187.72 27.5011Z" fill="white"/>
<path d="M196.667 32.7513H195.623V29.0114C195.623 28.3018 195.28 27.6423 194.578 27.6423H192.924V32.7513H191.879C191.545 32.7513 191.27 32.4674 191.27 32.1252V26.3984H195.13C196.366 26.3984 197.277 27.3835 197.277 28.644V32.1335C197.277 32.4674 196.993 32.7596 196.667 32.7596V32.7513Z" fill="white"/>
<path d="M201.387 32.746H200.811C199.791 32.746 198.872 32.003 198.872 30.9679V27.7706H198.262C197.928 27.7706 197.652 27.4867 197.652 27.1445V26.5184H198.881V25.2745C198.881 24.9406 199.165 24.6484 199.49 24.6484H200.535V26.5184H201.888V27.1445C201.888 27.4784 201.604 27.7706 201.278 27.7706H200.543V30.6339C200.543 31.1098 200.936 31.5021 201.404 31.5021H202.014V32.1282C202.014 32.4621 201.73 32.7543 201.404 32.7543L201.387 32.746Z" fill="white"/>
</g>
<defs>
<clipPath id="clip0_2744_10293">
<rect width="202" height="38" fill="white"/>
</clipPath>
</defs>
</svg>
