<svg width="57" height="60" viewBox="0 0 57 60" fill="none" xmlns="http://www.w3.org/2000/svg">
<path fill-rule="evenodd" clip-rule="evenodd" d="M45.8604 36.9456C46.0583 37.3968 46.2663 37.8839 46.4442 38.3874C46.9541 39.7625 47.1167 41.2438 46.9173 42.698C46.7053 44.1678 46.1155 45.5562 45.2066 46.7254C44.2968 47.8953 43.0998 48.8057 41.7339 49.3665C40.7019 49.7873 39.5985 50.0025 38.485 50C38.1351 49.9997 37.7855 49.9792 37.4379 49.9385C36.0296 49.7578 34.6713 49.2959 33.4424 48.5796C31.8305 47.6672 30.2389 46.3297 28.5001 44.4184C26.7612 46.3297 25.1694 47.6672 23.5578 48.5798C22.3288 49.296 20.9705 49.7579 19.5622 49.9385C19.2144 49.9795 18.8653 50 18.5152 50C17.4017 50.0022 16.2983 49.7871 15.266 49.3665C13.9002 48.8057 12.7033 47.8953 11.7935 46.7254C10.8846 45.5562 10.2949 44.1678 10.0828 42.698C9.88316 41.244 10.0458 39.7627 10.5562 38.3879C10.7343 37.8832 10.9421 37.3963 11.1398 36.9454C11.4397 36.2668 11.7452 35.5907 12.0561 34.9171L12.0962 34.8299C14.8915 28.7342 17.8183 22.7006 20.8746 16.7334L20.9957 16.4969C21.3164 15.8653 21.6428 15.2366 21.9746 14.6108C22.3692 13.8231 22.8474 13.0808 23.4009 12.397C24.025 11.6464 24.8047 11.0429 25.6853 10.629C26.5663 10.2148 27.5266 10.0001 28.4987 10C29.4709 9.99987 30.4313 10.2143 31.3124 10.6282C32.1931 11.042 32.973 11.6453 33.5973 12.3958C34.1515 13.0794 34.6302 13.8219 35.0248 14.61C35.3537 15.2301 35.677 15.8531 35.9948 16.4789L36.1255 16.7339C39.1819 22.7008 42.1086 28.7341 44.9037 34.8297L44.9284 34.8832C45.2448 35.5681 45.5555 36.2555 45.8604 36.9456ZM44.4032 42.3359C44.255 43.3636 43.8427 44.3343 43.2071 45.1516C42.5711 45.9697 41.7341 46.6063 40.779 46.9983C39.8127 47.3885 38.7645 47.5267 37.7312 47.4002C36.6572 47.2607 35.6223 46.9044 34.6881 46.3526C33.2534 45.5403 31.8011 44.2932 30.1668 42.4636C32.7684 39.2306 34.3931 36.2506 34.9944 33.5961C35.2649 32.48 35.3236 31.3225 35.1674 30.1845C35.0253 29.2039 34.6642 28.2686 34.1114 27.449C33.4632 26.5644 32.6178 25.8456 31.6435 25.3505C30.6686 24.8551 29.5921 24.5971 28.5003 24.5971C27.4086 24.5971 26.332 24.8551 25.3571 25.3505C24.3828 25.8454 23.5374 26.564 22.889 27.4485C22.3363 28.2678 21.9753 29.2027 21.833 30.183C21.6766 31.3206 21.735 32.4778 22.005 33.5936C22.6061 36.2489 24.2308 39.2299 26.8331 42.4639C25.199 44.2932 23.7468 45.5403 22.3121 46.3528C21.3779 46.9046 20.3429 47.2608 19.269 47.4002C18.2356 47.5267 17.1872 47.3885 16.2209 46.9983C15.2661 46.606 14.4293 45.9696 13.793 45.1518C13.1575 44.3344 12.7452 43.3636 12.5972 42.3359C12.455 41.2915 12.5762 40.2278 12.9495 39.2431C13.0913 38.8407 13.2576 38.4462 13.4634 37.9771C13.7578 37.3113 14.0575 36.648 14.3625 35.9871L14.4025 35.8995C17.1824 29.8377 20.0932 23.8377 23.1328 17.9038L23.2544 17.666L23.2759 17.6239C23.5805 17.0286 23.8948 16.4144 24.212 15.8205C24.5227 15.1939 24.8986 14.6023 25.3334 14.0557C25.7194 13.5866 26.2032 13.209 26.7505 12.9499C27.2977 12.6907 27.8949 12.5563 28.4996 12.5562C29.1042 12.5562 29.7015 12.6905 30.2487 12.9496C30.796 13.2087 31.2799 13.5862 31.666 14.0552C32.1011 14.6013 32.4771 15.1927 32.7876 15.8193C33.104 16.4124 33.418 17.0259 33.7221 17.6199L33.7225 17.6208L33.7366 17.6483L33.8676 17.9041C36.9072 23.8379 39.8179 29.838 42.5976 35.9L42.6223 35.9538L42.6523 36.0192C42.9468 36.6619 43.2504 37.3244 43.5367 37.9773C43.7428 38.447 43.9093 38.8419 44.0508 39.2428C44.4242 40.2276 44.5453 41.2915 44.4032 42.3359ZM24.4815 33.0261C24.9663 35.1669 26.3474 37.7208 28.5001 40.471C30.6523 37.7216 32.0331 35.1684 32.5183 33.0275C32.7169 32.2251 32.764 31.3922 32.6572 30.5722C32.5725 29.9711 32.3534 29.3972 32.0165 28.8938C31.6019 28.3518 31.0693 27.9131 30.4598 27.6114C29.85 27.3096 29.1797 27.1526 28.5004 27.1526C27.821 27.1525 27.1507 27.3093 26.5408 27.6109C25.9313 27.9126 25.3986 28.3513 24.9838 28.8933C24.647 29.3966 24.4279 29.9704 24.3432 30.5715C24.2358 31.3911 24.2827 32.2239 24.4815 33.0261Z" fill="#FF385C"/>
</svg>
